<?xml version="1.0" encoding="UTF-8"?>
<svg width="846px" height="490px" viewBox="0 0 846 490" version="1.1" xmlns="http://www.w3.org/2000/svg" xmlns:xlink="http://www.w3.org/1999/xlink">
    <!-- Generator: Sketch 40.3 (33839) - http://www.bohemiancoding.com/sketch -->
    <title>Map</title>
    <desc>Created with Sketch.</desc>
    <defs></defs>
    <g id="My-Story" stroke="none" stroke-width="1" fill="none" fill-rule="evenodd">
        <g id="Desktop" transform="translate(-1029.000000, -146.000000)">
            <g id="Map" transform="translate(1030.000000, 147.000000)">
                <g id="Blank-US-Map" stroke-width="1.28222" stroke="#000000">
                    <g>
                        <g id="Layer-1">
                            <g id="svg_5">
                                <polyline id="polyline42" points="764.781354 208.187803 759.529428 208.685716 752.831252 204.346617 751.308883 198.442533 747.883717 188.697325 740.728913 190.33337 746.589786 213.095957 759.909938 213.095957 764.781354 208.187803"></polyline>
                                <g id="svg_3">
                                    <polyline id="polyline78" points="725.12529 205.626992 728.930965 212.242374 727.713152 222.841207 742.784028 232.301887 744.001841 231.163755 742.784028 228.176173 735.172431 222.200988 742.174999 224.619515 737.684339 220.493801 737.684339 215.158835 736.466444 208.045519 735.857497 201.572421 737.684339 201.572421 738.978188 208.685716 740.88115 213.380506 740.272202 219.284528 744.001841 218.146417 746.589786 220.493801 751.004491 225.259713 750.395544 229.954482 749.786678 239.415203 752.298423 237.067777 755.419196 230.523578 756.10418 223.410262 759.909938 216.296946 759.909938 213.095957 746.589786 213.095957 740.34832 190.262269 687.067631 200.363147 687.143749 209.53932 707.314314 200.363147 708.988838 203.279587 716.067606 207.974397 720.710585 209.53932 725.12529 205.626992"></polyline>
                                    <polyline id="polyline100" points="751.004491 197.091037 747.807681 190.617939 751.004491 187.06126 753.592354 180.517041 746.589786 178.098493 746.589786 173.403724 749.101612 159.81731 747.274852 157.469925 762.421764 163.373947 764.933591 165.436825 764.248525 172.550141 768.739348 174.897526 768.739348 183.789171 766.227522 190.902446 759.909938 199.72297 751.004491 198.584838 751.004491 197.091037"></polyline>
                                    <polyline id="polyline118" points="791.497776 146.159774 791.497776 136.129997 793.324619 136.699073 797.130376 137.908326 799.718321 139.971162 799.109373 147.084458 797.130376 149.503047 790.812874 149.503047 791.497776 146.159774"></polyline>
                                    <g id="svg_2">
                                        <polyline id="polyline40" points="791.497776 146.159774 791.497776 136.129997 765.314101 144.523709 765.161946 160.173 764.324643 171.48309 767.445417 163.018319 770.03328 158.963706 779.471638 151.85041 785.180274 150.641137 790.812874 149.503047 791.497776 146.159774"></polyline>
                                        <polyline id="polyline64" points="561.934174 253.286145 557.519469 256.273707 556.834362 260.39942 553.104722 262.177729 552.495775 265.734407 547.776678 269.717816 541.382976 274.697195 537.881651 272.278648 532.857998 268.081812 534.075893 266.872559 535.369824 263.315922 529.737306 259.261351 524.637617 255.704672 519.614006 249.800629 519.614006 245.034739 521.440725 241.47806 520.83186 237.281183 513.29638 236.783291 506.293772 229.669995 501.879066 224.263866 499.976229 218.359823 497.540521 210.25066 504.390893 206.551717 503.17308 198.869345 505.684865 196.521961 501.879066 192.325085 504.999881 189.977721 510.784595 187.559194 514.514234 183.504602 517.102179 178.738711 514.514234 175.182074 510.09957 169.278031 507.511708 165.081155 551.810791 163.943044 553.104722 171.981044 558.128375 180.232492 559.422307 182.864404 560.640119 200.576574 561.325185 216.652616 561.934174 226.113316 558.813359 232.017359 560.10729 235.573976 561.325185 239.699731 558.128375 245.603753 563.151987 246.24395 565.739891 252.148014 561.934174 253.286145"></polyline>
                                        <polyline id="polyline66" points="558.128375 180.232492 561.934174 181.441725 567.642728 179.592315 569.545648 174.32845 598.012753 175.182074 606.842082 221.347405 606.842082 226.682392 603.036324 229.029777 599.306726 234.364764 596.718781 237.921422 592.304117 238.490436 591.010186 247.382061 586.59548 249.800629 583.398629 246.741884 577.76607 249.16039 575.254285 251.507775 565.739891 252.148014 563.151987 246.24395 558.128375 245.603753 561.325185 239.699731 560.10729 235.573976 558.813359 232.017359 561.934174 226.113316 561.325185 216.652616 560.640119 200.576574 559.422307 182.864404 558.128375 180.232492"></polyline>
                                        <polyline id="polyline72" points="632.188495 268.721989 637.212189 264.525154 642.844666 262.817967 643.52965 258.621112 650.456181 252.717028 647.335407 245.034739 643.377454 234.791535 640.33284 232.017359 634.015255 230.808085 625.870952 232.586435 614.453638 230.167908 609.962856 226.682392 606.842082 226.682392 603.036324 229.029777 599.306726 234.364764 596.718781 237.921422 592.304117 238.490436 591.010186 247.382061 586.59548 249.800629 583.398629 246.741884 577.76607 249.16039 575.254285 251.507775 573.275246 251.507775 561.934174 253.286145 557.519469 256.273707 556.834362 260.39942 553.104722 262.177729 552.495775 265.734407 544.88426 272.065242 541.535213 274.626053 538.262243 280.530075 547.396086 283.446577 555.616549 279.391943 562.619117 278.751766 587.204387 275.835265 630.894564 271.069374 632.188495 268.721989"></polyline>
                                        <polyline id="polyline76" points="799.109373 110.664386 784.495208 75.1689882 785.789139 73.1061211 788.300966 65.4237803 789.594897 55.9630589 788.300966 43.5147709 793.324619 39.389047 792.791789 26.3717138 797.815442 24.0243345 803.447878 28.719088 809.765462 24.5933847 814.256286 23.3841111 819.356057 29.9283617 822.476749 41.1673709 823.085778 49.418829 823.694644 55.3228613 826.206388 58.3104537 831.306159 55.9630589 833.208956 60.0887931 838.308727 65.9928151 842.114484 67.2020888 843.941162 69.5494836 840.820553 71.8968681 835.111917 71.8968681 826.891454 79.0101844 825.673476 76.0937238 824.379545 79.650382 819.356057 79.0101844 819.888886 85.5543937 815.550299 89.6801382 807.938702 97.362479 802.915131 104.475806 800.936134 114.505551 799.109373 110.664386"></polyline>
                                        <polyline id="polyline80" points="800.936134 121.33434 776.883693 123.112669 764.933591 124.179658 765.542538 144.452587 791.497776 136.129997 796.901939 137.69492 799.718321 139.971162 806.035823 142.38973 808.547649 139.971162 813.57122 139.971162 819.356057 137.623799 819.356057 134.636196 814.865233 129.870305 817.376977 132.92903 816.159164 136.485667 811.059393 135.845469 809.232633 133.426943 804.741809 128.732174 802.230147 121.618857 800.936134 121.33434"></polyline>
                                        <polyline id="polyline82" points="513.29638 90.5337213 530.270135 94.0903795 544.199235 99.9944221 548.690017 110.664386 548.004992 121.618857 551.201844 114.505551 553.713629 106.894312 556.301491 100.350061 559.422307 99.781016 563.151987 103.835587 565.130943 99.781016 572.057392 97.9315756 576.548257 94.3749175 582.865841 93.876994 591.771288 97.5047634 597.099373 93.4501818 604.939244 93.236786 607.451029 91.4584673 603.64523 90.8182696 598.62166 90.8182696 594.815902 87.9018091 592.304117 86.12348 585.986533 85.5543937 585.377585 81.9977562 581.571828 80.2194271 579.592872 80.2194271 572.7425 81.3575585 569.545648 82.5668322 565.130943 84.3451613 560.640119 86.7636777 556.301491 86.7636777 549.98399 86.7636777 545.493166 81.9977562 542.981381 81.9977562 537.272703 82.5668322 535.369824 80.2194271 536.663756 76.0937238 540.393477 73.7463291 540.393477 70.1896709 536.05489 71.8968681 528.443416 77.8009004 522.125791 83.7760852 515.808248 87.2616115 509.490623 88.4708645 513.29638 90.5337213"></polyline>
                                        <polyline id="polyline84" points="597.936594 175.110911 569.545648 174.32845 573.275246 166.077002 573.275246 158.323509 570.763461 147.084458 566.957703 138.192854 569.545648 128.732174 573.960312 118.702397 578.375018 112.798354 580.277855 114.505551 584.692602 108.601529 587.889412 102.1284 591.695169 99.1408184 598.012753 99.781016 603.036324 103.337674 609.430068 105.685038 612.474682 106.894312 613.159707 115.145749 613.768613 122.259065 611.256828 127.5229 608.745002 132.92903 608.745002 137.623799 611.941894 138.192854 613.159707 135.276414 613.768613 131.719777 618.259396 129.372361 623.891955 127.5229 625.870952 128.732174 627.088806 134.06714 629.600591 138.192854 631.503511 141.749491 633.406349 145.946368 627.697713 151.210213 626.403699 156.545179 623.283007 158.963706 622.065153 165.436825 618.259396 170.771771 618.868302 174.32845 614.758071 173.26146 597.936594 175.110911"></polyline>
                                        <polyline id="polyline98" points="800.936134 121.33434 800.860015 114.861211 784.495208 75.1689882 776.883693 77.3029769 779.471638 81.9977562 778.177624 91.7429743 775.056932 98.2872352 775.056932 107.747915 776.883693 117.208627 776.883693 123.041537 800.936134 121.33434"></polyline>
                                        <polyline id="polyline104" points="673.899675 152.703994 673.214691 159.177112 678.238303 159.177112 737.15151 148.009245 747.274852 157.469925 764.933591 164.654343 765.46642 144.168059 764.933591 124.321922 755.419196 107.107738 753.592354 88.8265241 742.784028 89.6801382 733.34567 91.4584673 727.028086 94.3749175 716.904827 107.392256 717.513774 116.355002 718.731587 122.259065 713.707934 123.966232 709.902259 127.5229 702.975728 129.372361 692.16732 129.870305 678.923245 132.92903 678.923245 139.402107 682.729044 143.527841 678.923245 147.084458 673.899675 152.419445 673.899675 152.703994"></polyline>
                                        <polyline id="polyline106" points="754.125265 252.717028 750.395544 252.717028 728.246064 257.411838 701.072931 263.315922 677.020408 264.525154 670.550587 265.449921 663.776333 269.43335 652.967966 275.835265 647.944355 279.889939 643.52965 279.889939 641.017947 285.295986 634.015255 289.35064 628.915525 291.769105 625.185886 294.11653 622.597941 301.229826 621.380129 304.501874 643.52965 301.870003 649.16225 297.104112 656.164818 297.104112 676.41146 295.325783 680.217259 298.313366 701.681714 297.673189 721.92848 310.690568 723.831358 311.615232 725.734155 309.836861 730.833926 308.627629 730.833926 304.501874 733.34567 297.957675 738.978188 290.915522 749.101612 289.137172 754.810249 284.940295 752.90737 282.023876 745.980838 283.802205 749.101612 280.245568 749.786678 276.688889 742.784028 275.479656 746.589786 274.341546 753.592354 276.119875 756.713128 271.922998 759.909938 267.228229 764.248525 269.006558 763.030712 277.329128 765.542538 273.77249 766.227522 269.006558 759.224954 260.114954 754.810249 260.755111 751.004491 264.311769 745.295855 265.449921 744.686907 262.462298 749.101612 263.102536 754.810249 258.905639 757.322075 256.558276 756.713128 251.792344 754.125265 252.717028"></polyline>
                                        <polyline id="polyline110" points="645.356492 227.251468 652.359019 216.652616 659.970575 213.095957 664.385322 205.342464 665.070347 188.768447 662.10181 160.101858 658.067697 163.018319 645.356492 170.771771 640.33284 173.688273 634.700321 176.675834 632.721324 174.32845 628.915525 174.32845 623.283007 174.897526 618.259396 174.32845 615.062586 173.403724 598.012753 175.182074 606.842082 221.347405 606.842082 226.682392 609.962856 226.682392 614.453638 230.167908 625.870952 232.586435 634.015255 230.808085 639.87617 231.875075 643.377454 234.862677 645.356492 227.251468"></polyline>
                                        <polyline id="polyline116" points="745.980838 189.408686 668.799986 203.635298 661.797377 161.026584 673.899675 152.703994 673.214691 159.177112 678.238303 159.177112 737.15151 148.009245 746.818141 156.971992 749.101612 159.81731 746.589786 173.403724 746.589786 178.098493 753.592354 180.517041 751.004491 187.06126 745.980838 189.408686"></polyline>
                                        <polyline id="polyline120" points="721.92848 310.690568 701.681714 297.673189 680.217259 298.313366 676.41146 295.325783 656.164818 297.104112 649.16225 297.104112 643.52965 301.870003 641.017947 302.367937 638.50612 307.774087 641.626812 310.690568 646.041476 311.330704 649.16225 314.247226 658.067697 324.917159 665.070347 325.486174 673.899675 336.156148 678.923245 343.269464 682.04406 347.395178 688.513881 346.257067 695.592568 349.600278 693.309014 344.834387 690.949507 341.775663 692.852386 341.775663 698.484904 340.566389 698.484904 337.009772 701.681714 336.511756 706.096419 334.662347 708.608246 328.758304 713.707934 327.051097 713.707934 323.49448 716.904827 315.740945 723.831358 311.47303 721.92848 310.690568"></polyline>
                                        <polyline id="polyline124" points="549.98399 310.690568 560.564042 310.121471 621.075655 304.501874 622.597941 301.229826 625.185886 294.11653 628.915525 291.769105 634.015255 289.35064 641.017947 285.295986 643.52965 279.889939 647.944355 279.889939 652.967966 275.835265 670.398432 265.521043 657.45879 267.512736 630.894564 271.069374 587.204387 275.835265 562.619117 278.751766 555.616549 279.391943 547.776678 283.517657 538.566676 280.530075 531.564108 288.852644 532.249133 296.463915 529.661229 305.355581 525.474879 309.054441 524.561458 311.046176 532.857998 311.259582 549.98399 310.690568"></polyline>
                                        <polyline id="polyline128" points="779.090963 84.4874251 778.177624 91.7429743 775.056932 98.2872352 775.056932 107.747915 776.883693 117.208627 776.807574 123.183791 764.705235 124.25077 755.419196 107.107738 753.592354 88.8265241 779.090963 84.4874251"></polyline>
                                        <polyline id="polyline130" points="719.492772 209.823848 725.12529 205.626992 728.930965 212.242374 727.713152 222.841207 733.34567 227.607118 740.88115 234.720393 744.686907 238.277051 741.490015 239.984279 734.563483 239.984279 740.88115 243.540937 748.492665 245.319246 753.592354 247.097575 756.713128 251.792344 750.395544 252.717028 728.246064 257.411838 701.072931 263.315922 677.020408 264.525154 657.45879 267.512736 630.894564 271.069374 632.188495 268.721989 637.212189 264.525154 642.844666 262.817967 643.52965 258.621112 650.456181 252.717028 652.967966 253.286145 661.797377 255.064454 668.799986 252.717028 675.726476 247.951137 680.217259 242.687313 682.729044 233.724525 685.849818 228.460701 689.655576 224.263866 694.679146 224.904063 695.973077 220.707208 698.484904 215.443383 704.269741 207.689869 707.999298 202.426004 717.513774 208.899122 720.710585 209.53932 719.492772 209.823848"></polyline>
                                        <polyline id="polyline134" points="556.301491 100.350061 553.713629 106.894312 551.201844 114.505551 548.004992 121.618857 548.004992 124.606471 551.810791 118.702397 556.834362 113.36742 559.422307 110.379859 556.834362 115.714835 554.322576 121.049812 551.810791 129.870305 552.495775 135.845469 551.201844 144.737094 551.201844 155.407048 552.495775 161.311091 551.810791 163.943044 507.511708 165.081155 506.293772 162.733791 501.041887 154.624607 498.910612 150.35663 498.682297 142.603116 495.561565 140.895929 493.049779 136.129997 489.244022 133.782633 478.435655 130.795031 475.923829 127.238383 477.217719 117.777703 475.923829 114.861211 475.314881 110.095321 475.314881 105.898465 478.435655 103.551091 484.220328 98.7851587 483.535344 97.0779513 482.926396 87.6172711 485.438223 87.2616115 491.755807 86.7636777 496.855537 85.5543937 500.661254 84.9142064 501.879066 83.7760852 503.781945 87.2616115 509.490623 88.4708645 515.808248 87.2616115 513.29638 90.5337213 530.270135 94.0903795 544.199235 99.9944221 548.690017 110.664386 556.301491 100.350061"></polyline>
                                        <polyline id="polyline140" points="647.335407 245.034739 650.5323 252.788253 661.797377 255.064454 668.799986 252.717028 675.726476 247.951137 680.217259 242.687313 682.729044 233.724525 685.849818 228.460701 689.655576 224.263866 694.679146 224.904063 695.973077 220.707208 698.484904 215.443383 704.269741 207.689869 707.999298 202.426004 717.513774 208.899122 720.710585 209.53932 715.610896 205.342464 707.39035 200.576574 687.143749 209.53932 687.143749 200.292025 668.952182 203.421871 665.450898 186.349941 664.385322 205.342464 659.970575 213.095957 652.359019 216.652616 645.356492 227.251468 643.52965 234.364764 647.335407 245.034739"></polyline>
                                        <g id="svg_1">
                                            <polyline id="polyline126" points="461.994688 414.61591 456.362211 418.172485 452.556412 415.184924 452.556412 412.268484 448.14179 414.61591 450.044586 418.172485 448.750737 421.088967 443.727125 426.993009 436.115569 431.189886 428.58009 434.746502 422.186428 434.106325 417.771764 433.537229 418.989618 436.453751 421.577481 438.801053 420.968574 441.219642 413.357059 442.357711 409.551302 444.207162 410.160208 446.554629 408.333489 448.902013 404.52769 449.471028 404.52769 452.45863 402.548693 456.584344 398.819053 458.433795 398.210147 461.350276 403.233759 461.350276 404.52769 464.906934 402.015946 469.601744 403.842624 473.158361 405.136637 480.271677 404.52769 484.966446 405.745544 487.669521 395.698321 484.966446 384.889995 483.25928 379.257436 480.911854 370.960855 473.798538 367.155097 464.906934 362.131485 456.01533 360.228606 449.471028 355.813901 445.416436 352.693127 442.357711 349.496317 438.801053 349.496317 433.537229 345.69056 429.340435 345.69056 424.645583 340.590871 420.519829 334.958311 416.323076 330.467508 412.268484 321.638139 411.05921 312.80879 408.711867 306.491186 411.05921 305.197234 419.310637 302.076501 421.729102 298.270764 423.436351 291.95318 419.879693 283.12379 413.406595 278.632987 408.711867 276.806247 400.389236 271.021472 392.706864 270.488663 387.940974 260.89815 381.467876 259.680317 377.911217 252.068761 370.157683 245.066152 366.458823 245.522862 363.542342 308.394065 367.525771 314.711669 282.308404 364.034364 282.877521 363.349339 323.707845 370.351948 324.917118 374.766695 326.695447 379.257436 329.042832 384.281048 330.821161 390.598673 331.461379 393.110376 333.168504 395.698321 335.51593 402.015946 335.017996 406.35445 335.017996 410.160208 337.36538 415.868844 336.725162 422.186428 337.36538 431.700864 336.725162 437.4095 335.017996 444.335991 335.51593 449.359685 339.712806 453.850344 340.28182 458.874038 342.060149 461.461941 357.496056 461.461941 371.651484 467.779484 378.7648 470.900258 385.878117 472.118071 392.991392 470.291393 399.46449 466.485553 405.368615 466.485553 409.565409 467.094459 413.691123 461.994688 414.61591"></polyline>
                                            <polyline id="polyline10" points="621.380129 385.23794 590.401197 384.099829 576.548257 384.099829 577.76607 393.56053 571.600764 393.987259 571.600764 389.292532 568.327794 387.656446 567.033822 394.485234 561.934174 394.200666 560.10729 381.183389 560.640119 310.121471 601.818511 306.564813 616.965423 355.077508 614.453638 364.609331 618.259396 370.513415 616.965423 378.124665 620.771181 383.530691 621.380129 385.23794"></polyline>
                                            <polyline id="polyline32" points="121.454909 284.157896 120.541488 287.643412 123.73836 291.200029 125.032302 296.463915 126.250145 299.451497 124.347277 304.217429 117.420776 308.343142 118.029713 310.121471 114.908991 314.247226 114.223956 317.234788 114.223956 325.486174 114.223956 333.168545 136.982445 348.319883 148.399718 355.433199 162.252699 364.253723 203.963899 368.592801 221.470401 263.102536 138.733087 250.227462 135.155654 267.512736 132.643837 269.860121 128.153034 266.374626 124.347277 269.291066 123.053325 283.446577 121.454909 284.157896"></polyline>
                                            <polyline id="polyline34" points="531.564108 294.11653 523.952551 295.325783 520.83186 292.907298 522.734738 289.990796 524.637617 283.446577 451.871305 286.434138 454.459291 341.491135 458.874038 341.633378 460.776875 352.730165 510.784595 350.951795 511.317424 349.173507 510.784595 342.629205 511.317424 336.156148 515.808248 329.042832 521.440725 322.498612 518.92894 316.594528 523.952551 313.037911 525.170446 309.41009 529.737306 305.426661 532.249133 296.463915 531.564108 294.11653"></polyline>
                                            <polyline id="polyline36" points="114.223956 325.486174 114.223956 317.234788 114.908991 314.247226 118.029713 310.121471 117.420776 308.343142 124.347277 304.217429 126.250145 299.451497 125.032302 296.463915 123.73836 291.200029 120.541488 287.643412 122.977217 283.161987 82.6361073 227.820483 58.5836765 191.115852 73.9589594 137.481535 12.9906181 122.899253 10.2504608 124.606471 11.5444191 128.163108 11.5444191 130.510493 3.24785446 143.527841 0.127129375 148.293752 0.127129375 155.407048 3.24785446 158.963706 3.93289154 170.131635 2.71504657 179.592315 4.54181531 187.345809 8.34757812 193.249872 9.0326184 202.710552 15.350187 202.710552 15.9591089 200.363147 19.1559524 201.572421 19.1559524 203.919826 16.5680281 205.129099 15.9591089 208.045519 15.9591089 210.392903 13.3711859 209.823848 10.2504608 213.949561 14.0562262 218.146417 17.8619877 226.397823 15.9591089 229.954482 13.3711859 232.301887 17.8619877 242.971861 20.3737935 247.737752 23.494516 255.348961 26.6913621 261.893263 26.6913621 267.868427 25.473521 272.563237 24.7884782 273.77249 30.4971224 275.479656 33.61785 279.036315 37.423618 278.467218 40.620459 279.036315 43.7411866 281.383658 45.0351436 284.442444 46.2529873 287.927939 51.3527225 288.496974 55.767402 290.915522 57.670286 293.262906 60.867127 297.459803 63.3789276 300.945236 65.8907386 304.501874 69.6964963 305.070971 70.3054284 306.280203 71.5993905 309.836861 72.2083072 315.740945 72.8172239 320.435755 76.6229867 323.49448 80.4287547 323.992372 84.2345123 324.63259 95.5756874 327.051097 103.872269 328.189207 109.504807 327.549072 114.223956 325.486174"></polyline>
                                            <polyline id="polyline38" points="230.75646 186.421083 305.501666 194.103434 336.252222 196.521961 331.685342 272.420932 314.711628 271.994161 221.698715 263.315922 230.75646 186.421083"></polyline>
                                            <polyline id="polyline44" points="612.474682 400.389277 604.939244 397.401674 598.012753 393.276043 591.010186 392.706905 583.398629 396.83266 578.146703 396.83266 577.76607 393.56053 576.548257 384.099829 590.401197 384.099829 621.227892 385.23794 621.76068 389.221369 669.332733 389.008004 670.778942 390.572927 673.443005 390.572927 671.920678 376.986471 683.870821 378.409192 686.534802 386.731741 692.852386 397.401674 696.658226 405.724306 706.781485 421.089008 710.587243 429.980653 718.12264 440.650586 722.537345 446.55467 723.222411 461.350276 721.243414 469.032647 720.025601 472.589347 719.416653 475.505828 713.099069 479.702581 708.608246 479.702581 705.487554 477.355237 703.584593 473.798538 699.778917 470.241921 694.146399 465.476031 687.828733 461.990494 687.828733 457.793659 684.631923 454.237001 684.631923 448.902013 680.217259 450.111328 675.117488 445.914411 671.920678 442.357794 672.605702 438.801136 673.899675 435.31564 673.214691 429.980653 670.702824 431.189927 668.799986 434.106325 668.191079 424.645666 668.799986 417.532391 667.582173 411.628307 660.579564 407.502635 653.653032 403.305717 647.944355 400.389277 641.017947 397.401674 633.406349 394.485234 630.894564 398.041934 627.088806 401.598551 620.771181 400.958374 612.474682 400.389277"></polyline>
                                            <polyline id="polyline46" points="682.04406 347.395178 678.923245 343.269464 673.899675 336.156148 665.070347 325.486174 658.067697 324.917159 649.16225 314.247226 646.041476 311.330704 641.626812 310.690568 638.50612 307.774087 641.017947 302.367937 620.771181 304.786484 601.818511 306.564813 616.965423 355.077508 614.453638 364.609331 618.259396 370.513415 617.041542 378.053502 620.466748 382.250337 622.065153 389.64814 622.750219 389.221369 669.408892 389.008004 671.159534 390.715253 673.290768 390.715253 671.920678 376.986471 684.022975 378.480355 682.04406 373.714423 683.33795 361.906297 685.849818 360.697065 687.143749 358.34968 683.33795 357.780542 695.440331 349.529115 688.209408 346.257067 682.04406 347.395178"></polyline>
                                            <polyline id="polyline62" points="210.81425 115.288013 205.942855 113.011771 201.528191 113.011771 197.113506 114.221044 191.404849 115.359155 182.499382 114.221044 183.793334 109.455113 179.987535 105.898465 178.693604 101.203685 174.963944 97.0779513 175.572871 93.5212931 174.355038 86.9770735 172.37602 88.1863162 169.255287 88.8265241 166.743522 90.5337213 166.058477 86.9770735 167.352429 78.1565909 171.843211 69.1938239 169.864235 67.4866062 168.037454 66.8464085 164.840623 63.929979 163.546651 59.2351687 160.425928 54.4692782 156.62017 50.9126303 155.402337 45.0085671 155.935125 34.3386029 156.772397 20.4676867 145.811814 18.333667 140.103157 43.8704356 136.373487 59.0217833 133.02443 70.8298685 114.223956 146.159774 158.142488 156.474078 202.289334 163.943044 210.81425 115.288013"></polyline>
                                            <polyline id="polyline68" points="430.40685 202.995059 425.992186 176.391306 421.577481 168.637813 419.674602 151.494741 422.414784 149.716411 498.834534 150.925665 506.293772 162.733791 510.09957 169.278031 514.514234 175.182074 517.102179 178.738711 514.514234 183.504602 510.784595 187.559194 504.999881 189.977721 501.879066 192.325085 505.684865 196.521961 503.17308 198.869345 504.390893 206.551717 497.312207 210.321761 496.170471 208.330046 493.049779 204.133211 484.753157 206.551717 432.309729 208.330046 430.40685 202.995059"></polyline>
                                            <polyline id="polyline70" points="451.566955 235.360611 450.044586 234.364764 445.021016 225.473119 447.913393 223.125714 447.532801 220.209274 334.958311 216.012439 331.761419 272.278648 451.566955 276.33326 451.871305 238.277051 451.566955 235.360611"></polyline>
                                            <polyline id="polyline74" points="539.860648 398.255299 537.881651 389.434775 534.760918 389.434775 506.293772 389.434775 504.999881 381.183389 509.490623 375.208184 510.784595 371.082429 517.102179 366.956756 513.905328 361.052714 510.784595 350.951795 460.776875 352.730165 461.461941 357.496056 461.461941 371.651484 467.779484 378.7648 470.900217 385.878117 472.118071 392.991392 470.291311 399.464572 466.485553 405.368656 466.485553 409.565409 467.094459 413.691164 474.097068 411.059293 481.023518 414.615951 491.070741 415.825183 499.976229 414.615951 508.805639 413.975733 508.805639 417.532391 515.123182 419.879693 522.734738 424.645666 524.637617 420.519952 530.270135 421.089008 532.857998 419.310679 536.05489 418.741623 544.88426 421.089008 548.690017 425.285925 551.201844 423.436351 552.495775 419.879693 549.98399 419.310679 546.178232 415.825183 541.687408 413.406636 544.199235 409.850019 547.396086 408.071608 547.396086 403.946018 543.666447 405.155291 540.393477 410.419075 539.175623 408.071608 540.393477 403.946018 537.881651 402.807824 534.760918 404.514991 527.758309 402.807824 536.05489 400.389277 543.666447 401.598551 539.860648 398.255299"></polyline>
                                            <polyline id="polyline86" points="422.186428 147.369006 421.577481 118.915793 417.162776 114.221044 417.771764 108.886067 420.968574 104.191247 419.674602 98.2872352 417.771764 86.9770735 416.477792 76.9473173 417.162776 70.4030564 412.139246 61.5825842 412.139246 47.9250482 423.784834 47.7116215 440.225718 47.0714342 442.128638 46.5023478 442.128638 41.1673709 444.031517 41.1673709 445.934355 47.0714342 448.44614 51.7662134 454.763765 54.7538162 459.787336 55.9630589 464.2782 57.1723016 463.593093 52.8332129 477.902826 52.8332129 474.097068 56.5321349 479.729545 58.3104537 485.438223 60.0887931 487.341102 62.4361673 505.684865 63.0763752 513.905328 62.4361673 515.808248 63.0763752 503.781945 70.1896709 492.364672 77.8009004 487.341102 81.3575585 482.926396 87.6172711 483.535344 97.0779513 484.220328 98.7851587 478.435655 103.551091 475.314881 105.898465 475.314881 110.095321 475.923829 114.861211 477.217719 117.777703 475.923829 127.238383 478.435655 130.795031 489.244022 133.782633 493.049779 136.129997 495.561565 140.895929 498.682297 142.603116 498.682297 149.147335 499.367363 150.925665 422.186428 149.716411 422.186428 147.369006"></polyline>
                                            <polyline id="polyline88" points="523.952551 313.037911 518.92894 316.594528 521.440725 322.498612 515.808248 329.042832 511.317424 336.156148 510.784595 342.629205 511.012951 351.094079 513.905328 361.052714 517.102179 366.956756 510.784595 371.082429 509.490623 375.208184 504.999881 381.183389 506.293772 389.434775 534.760918 389.434775 537.881651 389.434775 539.860648 398.255299 545.797681 395.694508 554.398695 393.276043 561.934174 394.200666 560.10729 381.183389 560.10729 310.690568 549.98399 310.690568 524.637617 311.330704 523.952551 313.037911"></polyline>
                                            <polyline id="polyline90" points="536.05489 284.086754 531.564108 288.852644 531.564108 294.11653 523.952551 295.325783 520.83186 292.907298 522.734738 289.990796 524.637617 283.446577 451.871305 286.434138 451.566955 235.004982 450.044586 234.364764 445.021016 225.615362 447.913393 222.98347 447.380605 220.280375 432.309729 208.330046 484.753157 206.551717 493.049779 204.133211 497.312207 210.321761 499.976229 218.359823 501.879066 224.263866 506.293772 229.669995 513.29638 236.783291 520.83186 237.281183 521.440725 241.47806 519.614006 245.034739 519.614006 249.800629 524.637617 255.704672 529.737306 259.261351 535.369824 263.315922 534.075893 266.872559 532.857998 268.081812 538.33832 272.492012 541.459094 274.768317 536.05489 284.086754"></polyline>
                                            <polyline id="polyline92" points="155.935125 34.3386029 155.402337 45.0085671 156.62017 50.9126303 160.425928 54.4692782 163.546651 59.2351687 164.840623 63.929979 168.037454 66.8464085 169.864235 67.4866062 171.843211 69.1938239 167.352429 78.1565909 166.058477 86.9770735 166.743522 90.5337213 169.255287 88.8265241 172.37602 88.1863162 174.355038 86.9770735 175.572871 93.5212931 174.963944 97.0779513 178.693604 101.203685 179.987535 105.898465 183.793334 109.455113 182.499382 114.221044 191.404849 115.359155 197.113506 114.221044 201.528191 113.011771 205.942855 113.011771 211.042606 115.359155 212.26046 107.107738 312.275941 118.06221 318.74572 43.372507 281.525364 39.958123 251.840364 37.0416728 225.276158 33.4850147 198.711911 28.0789213 176.562349 24.5933847 157.000742 20.4676867 155.935125 34.3386029"></polyline>
                                            <polyline id="polyline94" points="425.992186 176.391306 430.40685 203.208486 432.538126 208.401188 447.15225 220.209274 440.073481 219.853624 334.958311 216.012439 336.252222 196.521961 305.882259 194.245698 309.079069 156.331815 390.598549 159.81731 398.210106 165.081155 402.015863 165.081155 403.842624 162.733791 408.866236 163.943044 417.162776 169.278031 422.186428 172.194471 425.992186 176.391306"></polyline>
                                            <polyline id="polyline96" points="117.801378 276.048691 82.6361073 227.820483 58.5836765 191.115852 73.8828564 137.552677 157.914143 156.260631 135.155654 267.512736 132.643837 269.860121 128.153034 266.374626 124.347277 269.291066 123.053325 283.446577 117.801378 276.048691"></polyline>
                                            <polyline id="polyline102" points="245.14225 366.529903 217.664622 364.609331 216.82734 369.873155 204.039976 368.663964 221.470401 263.102536 314.63551 271.994161 314.863844 282.16614 308.394044 367.525771 245.751156 363.400098 245.14225 366.529903"></polyline>
                                            <polyline id="polyline108" points="419.674602 98.2872352 417.771764 86.9770735 416.477792 76.9473173 417.162776 70.4030564 412.139246 61.5825842 412.139246 47.9250482 390.294076 47.0714342 366.393954 46.2178304 342.113116 45.0085671 318.669623 43.5147709 314.026603 100.634609 420.055153 105.187125 419.674602 98.2872352"></polyline>
                                            <polyline id="polyline112" points="314.63551 271.851856 451.566955 276.262118 453.850344 340.281862 449.359602 339.712806 444.335991 335.51593 437.4095 335.017996 431.700864 336.725245 422.186428 337.365422 415.868844 336.725245 410.160208 337.365422 406.35445 335.017996 402.015863 335.017996 395.698279 335.51593 393.110376 333.168545 390.598549 331.461379 384.281006 330.821161 379.257436 329.042832 374.766571 326.695489 370.351866 324.917159 363.349257 323.707845 364.034364 282.877521 314.711628 282.308404 314.63551 271.851856"></polyline>
                                            <polyline id="polyline114" points="38.717575 48.8497529 35.596855 51.7662134 35.596855 58.3104537 29.2792813 67.2020888 28.5942435 71.327792 29.8120898 74.2442525 26.6913621 77.3029769 24.7884782 80.8596247 24.1795589 87.2616115 20.9827179 92.027502 17.8619877 93.876994 19.6887584 96.7934442 14.0562262 99.1408184 12.8383799 104.475806 11.5444191 108.601529 13.3711859 109.810772 10.8593814 113.36742 10.8593814 118.702397 13.2189503 122.899253 74.111186 137.481535 114.071708 146.302017 131.349886 78.8679102 133.176656 70.9009902 125.032302 70.4030564 118.714748 69.1938239 112.397164 68.0556925 101.588808 67.4866062 98.4680752 68.6958798 92.7594387 66.8464085 88.953681 67.4866062 83.3211424 67.4866062 77.5363772 65.7082771 74.4156495 66.2773531 72.5127707 65.1392217 68.707013 63.929979 63.6072778 65.1392217 56.0718707 65.1392217 52.2661027 59.2351687 54.1689867 50.9126303 52.9511481 48.5652149 42.8277961 45.5776431 38.717575 48.8497529"></polyline>
                                            <polyline id="polyline122" points="422.186428 172.194471 417.162776 169.278031 408.866236 163.943044 403.842624 162.733791 402.015863 165.081155 398.210106 165.081155 390.598549 159.81731 309.307445 156.047266 314.026603 100.634609 418.989577 105.400541 417.771764 108.886067 417.162776 114.221044 421.577481 118.915793 422.186428 147.369006 422.186428 150.35663 419.674602 151.494741 421.577481 168.637813 425.992186 176.391306 422.186428 172.194471"></polyline>
                                            <polyline id="polyline132" points="67.1846904 15.061552 67.7936174 17.4800839 63.9878495 21.6769346 60.867127 25.731511 60.1820867 28.719088 60.867127 31.1376457 60.867127 33.4850147 65.2818065 32.275741 67.1846904 29.288164 70.3054284 26.3717138 70.9904584 21.6769346 71.5993905 16.9110337 68.4786474 16.9110337 67.7936174 13.9234258 69.0114662 11.5760516 72.2083072 8.0193986 72.2083072 1.54627993 76.6229867 0.337016575 98.1636117 5.60086157 113.310575 10.3667779 135.460117 15.7017548 145.735675 18.333667 136.373487 59.2351687 135.079556 64.499024 133.100538 70.9009902 125.032302 70.4030564 118.714748 69.1938239 112.397164 68.0556925 101.588808 67.4866062 98.4680752 68.6958798 92.7594387 66.8464085 88.953681 67.4866062 83.3211424 67.4866062 77.5363772 65.7082771 74.4156495 66.2773531 72.5127707 65.1392217 68.707013 63.929979 63.6072778 65.1392217 56.0718707 65.1392217 52.2661027 59.2351687 54.1689867 50.9126303 52.9511481 48.5652149 45.0351436 46.0755666 41.2293859 42.9456948 41.2293859 37.6107179 43.7411866 31.6355691 41.2293859 29.288164 42.4472245 21.0367369 39.3264968 10.3667779 45.0351436 1.54627993 55.1584802 11.0069756 60.1820867 9.79772767 60.1820867 12.7141521 66.4996553 13.9234258 67.1846904 15.061552"></polyline>
                                            <polyline id="polyline136" points="305.882259 194.103434 312.580394 117.991088 212.26046 107.107738 198.940267 182.864404 262.953225 190.048842 305.882259 194.103434"></polyline>
                                        </g>
                                    </g>
                                </g>
                            </g>
                        </g>
                    </g>
                </g>
                <g id="map_marker_sanfrancisco" transform="translate(11.000000, 199.000000)" fill="#6B203E">
                    <path d="M7.96746988,2.64526693e-15 C3.56698795,2.64526693e-15 0,3.555953 0,7.94174845 C0.000481927711,12.3285046 7.96746988,23.2196885 7.96746988,23.2196885 C7.96746988,23.2196885 15.9344578,12.3285046 15.9344578,7.94222882 C15.9349398,3.555953 12.3689639,0 7.96746988,0 L7.96746988,2.64526693e-15 Z M7.96746988,11.1051415 C6.30192771,11.1051415 4.95021687,9.75635331 4.95021687,8.09570764 C4.95021687,6.43602273 6.30139759,5.09021281 7.96746988,5.09021281 C9.63450602,5.09021281 10.9852048,6.43655114 10.9852048,8.09570764 C10.9852048,9.75635331 9.63498795,11.1051896 7.96746988,11.1051896 L7.96746988,11.1051415 Z" id="Shape"></path>
                </g>
                <g id="map_marker_cleveland" transform="translate(637.000000, 155.000000)" fill="#6B203E">
                    <path d="M7.96746988,2.64526693e-15 C3.56698795,2.64526693e-15 0,3.555953 0,7.94174845 C0.000481927711,12.3285046 7.96746988,23.2196885 7.96746988,23.2196885 C7.96746988,23.2196885 15.9344578,12.3285046 15.9344578,7.94222882 C15.9349398,3.555953 12.3689639,0 7.96746988,0 L7.96746988,2.64526693e-15 Z M7.96746988,11.1051415 C6.30192771,11.1051415 4.95021687,9.75635331 4.95021687,8.09570764 C4.95021687,6.43602273 6.30139759,5.09021281 7.96746988,5.09021281 C9.63450602,5.09021281 10.9852048,6.43655114 10.9852048,8.09570764 C10.9852048,9.75635331 9.63498795,11.1051896 7.96746988,11.1051896 L7.96746988,11.1051415 Z" id="Shape"></path>
                </g>
                <g id="map_marker_boston" transform="translate(798.000000, 112.000000)" fill="#6B203E">
                    <path d="M7.96746988,2.64526693e-15 C3.56698795,2.64526693e-15 0,3.555953 0,7.94174845 C0.000481927711,12.3285046 7.96746988,23.2196885 7.96746988,23.2196885 C7.96746988,23.2196885 15.9344578,12.3285046 15.9344578,7.94222882 C15.9349398,3.555953 12.3689639,0 7.96746988,0 L7.96746988,2.64526693e-15 Z M7.96746988,11.1051415 C6.30192771,11.1051415 4.95021687,9.75635331 4.95021687,8.09570764 C4.95021687,6.43602273 6.30139759,5.09021281 7.96746988,5.09021281 C9.63450602,5.09021281 10.9852048,6.43655114 10.9852048,8.09570764 C10.9852048,9.75635331 9.63498795,11.1051896 7.96746988,11.1051896 L7.96746988,11.1051415 Z" id="Shape"></path>
                </g>
            </g>
        </g>
    </g>
</svg>