<?xml version="1.0" encoding="UTF-8"?>
<svg width="16px" height="24px" viewBox="0 0 16 24" version="1.1" xmlns="http://www.w3.org/2000/svg" xmlns:xlink="http://www.w3.org/1999/xlink">
    <!-- Generator: Sketch 40.3 (33839) - http://www.bohemiancoding.com/sketch -->
    <title>map_marker_cleveland</title>
    <desc>Created with Sketch.</desc>
    <defs></defs>
    <g id="My-Story" stroke="none" stroke-width="1" fill="none" fill-rule="evenodd">
        <g id="Desktop" transform="translate(-1052.000000, -707.000000)" fill="#6B203E">
            <g id="Map-Key" transform="translate(1030.000000, 655.000000)">
                <g id="map_marker_cleveland" transform="translate(22.000000, 52.000000)">
                    <path d="M7.96746988,2.64526693e-15 C3.56698795,2.64526693e-15 0,3.555953 0,7.94174845 C0.000481927711,12.3285046 7.96746988,23.2196885 7.96746988,23.2196885 C7.96746988,23.2196885 15.9344578,12.3285046 15.9344578,7.94222882 C15.9349398,3.555953 12.3689639,0 7.96746988,0 L7.96746988,2.64526693e-15 Z M7.96746988,11.1051415 C6.30192771,11.1051415 4.95021687,9.75635331 4.95021687,8.09570764 C4.95021687,6.43602273 6.30139759,5.09021281 7.96746988,5.09021281 C9.63450602,5.09021281 10.9852048,6.43655114 10.9852048,8.09570764 C10.9852048,9.75635331 9.63498795,11.1051896 7.96746988,11.1051896 L7.96746988,11.1051415 Z" id="Shape"></path>
                </g>
            </g>
        </g>
    </g>
</svg>