<?xml version="1.0"?><svg width="640" height="480" xmlns="http://www.w3.org/2000/svg">
 <metadata id="metadata143">image/svg+xml</metadata>
 <!--Exported from TpX drawing-->
 <title>Blank US Map</title>
 <desc>Imported from usa.wmf 25/05/2008 18:05:02</desc>
 <g>
  <title>Layer 1</title>
  <g id="svg_5">
   <polyline stroke="black" stroke-width="1.28222" fill="none" points="572.2430419921875,185.43439487389878 568.34765625,185.80374849194777 563.3795776367188,182.58499061273142 562.2504272460938,178.20532182771967 559.7099609375,170.97629468488594 554.4031982421875,172.1899179322936 558.750244140625,189.0752799172369 568.6298828125,189.0752799172369 572.2430419921875,185.43439487389878 " id="polyline42" stroke-miterlimit="10"/>
   <g id="svg_3">
    <polyline stroke="black" stroke-width="1.28222" fill="none" points="542.8298950195312,183.5347767320054 545.652587890625,188.44208917105425 544.7493286132812,196.3043376623009 555.927490234375,203.32230122307374 556.8307495117188,202.47803159371506 555.927490234375,200.26183337984548 550.2819213867188,195.8294216509912 555.4757690429688,197.623492700739 552.14501953125,194.56302485751075 552.14501953125,190.60552913996617 551.24169921875,185.3288477817532 550.7900390625,180.52708243484994 552.14501953125,180.52708243484994 553.1046752929688,185.80374849194777 554.51611328125,189.28635880041293 554.064453125,193.6659816820793 556.8307495117188,192.82172735383574 558.750244140625,194.56302485751075 562.024658203125,198.09839341093357 561.572998046875,201.5809884182836 561.1213989257812,208.5989825812867 562.984375,206.85765447538142 565.299072265625,202.00314618463563 565.80712890625,196.72646482642267 568.6298828125,191.44978346820972 568.6298828125,189.0752799172369 558.750244140625,189.0752799172369 554.1209106445312,172.13717498845108 514.602294921875,179.63003925941848 514.6587524414062,186.43695453924556 529.619384765625,179.63003925941848 530.8613891601562,181.79346392721527 536.1117553710938,185.27608953679555 539.5554809570312,186.43695453924556 542.8298950195312,183.5347767320054 " id="polyline78" stroke-miterlimit="10"/>
    <polyline stroke="black" stroke-width="1.28222" fill="none" points="562.024658203125,177.20277746348802 559.653564453125,172.40101211658475 562.024658203125,169.76265613636315 563.944091796875,164.90813254450222 558.750244140625,163.1140461936393 558.750244140625,159.63145118628927 560.61328125,149.55300448117305 559.2583618164062,147.81170697749803 570.492919921875,152.1913298591644 572.35595703125,153.72157908189365 571.8478393554688,158.9982604401066 575.1787109375,160.73955794378162 575.1787109375,167.3354096415478 573.315673828125,172.6120603975305 568.6298828125,179.15515385033905 562.024658203125,178.31088422098037 562.024658203125,177.20277746348802 " id="polyline100" stroke-miterlimit="10"/>
    <polyline stroke="black" stroke-width="1.28222" fill="none" points="592.0587768554688,139.42179953109917 592.0587768554688,131.9816782039743 593.4137573242188,132.4038206692112 596.2365112304688,133.30084854352754 598.156005859375,134.83106716402654 597.704345703125,140.10773322112436 596.2365112304688,141.90185017421754 591.55078125,141.90185017421754 592.0587768554688,139.42179953109917 " id="polyline118" stroke-miterlimit="10"/>
    <g id="svg_2">
     <polyline stroke="black" stroke-width="1.28222" fill="none" points="592.0587768554688,139.42179953109917 592.0587768554688,131.9816782039743 572.63818359375,138.20816098257637 572.5253295898438,149.81685691042185 571.904296875,158.20671845347533 574.218994140625,151.92752333326098 576.138427734375,148.91979843387526 583.138916015625,143.64313237677743 587.373046875,142.74608920134597 591.55078125,141.90185017421754 592.0587768554688,139.42179953109917 " id="polyline40" stroke-miterlimit="10"/>
     <polyline stroke="black" stroke-width="1.28222" fill="none" points="421.7900390625,218.8884928684638 418.515625,221.10467578121825 418.0074768066406,224.1651436244465 415.2411804199219,225.4842986628846 414.7895202636719,228.12265464310622 411.2893371582031,231.07756009307377 406.5470886230469,234.7712798869452 403.95013427734375,232.97719353608227 400.22406005859375,229.86396744789636 401.12738037109375,228.96693957358002 402.08709716796875,226.32861419558867 397.909423828125,223.3209198984332 394.126953125,220.6825639182116 390.4009094238281,216.3029257354301 390.4009094238281,212.76757248312242 391.75579833984375,210.12921650290082 391.30419921875,207.01595981248465 385.715087890625,206.6466214955508 380.5212097167969,201.36995543845296 377.2467956542969,197.35967087372046 375.83544921875,192.98003269093897 374.02886962890625,186.9646287955129 379.1098327636719,184.22074102426086 378.2065734863281,178.52193250192613 380.069580078125,176.78063499825112 377.2467956542969,173.66737830783495 379.5615234375,171.92609610527506 383.8520812988281,170.13202505552727 386.6183776855469,167.12431545725667 388.5378723144531,163.58896220494898 386.6183776855469,160.95063682695763 383.343994140625,156.57099864417614 381.424560546875,153.45774195375998 414.2814636230469,152.61348762551643 415.2411804199219,158.57610267375458 418.9672546386719,164.6970536613262 419.9269714355469,166.6494147470621 420.8302307128906,179.78835989763684 421.3383483886719,191.7136205963434 421.7900390625,198.73159945823136 419.4753112792969,203.11123764101285 420.4350280761719,205.74954771788907 421.3383483886719,208.81004616334758 418.9672546386719,213.18966904501394 422.69329833984375,213.6645697552085 424.6127624511719,218.04422323910512 421.7900390625,218.8884928684638 " id="polyline64" stroke-miterlimit="10"/>
     <polyline stroke="black" stroke-width="1.28222" fill="none" points="418.9672546386719,164.6970536613262 421.7900390625,165.59406623452742 426.02410888671875,164.22216825224677 427.4355163574219,160.31741547854472 448.54974365234375,160.95063682695763 455.0985107421875,195.19623090480854 455.0985107421875,199.15374192346826 452.2757568359375,200.89503942714327 449.5094909667969,204.852550445803 447.5899963378906,207.49089112490947 444.31561279296875,207.912987686801 443.35589599609375,214.50882408345205 440.08148193359375,216.3029257354301 437.7103576660156,214.03393867437262 433.53265380859375,215.8279944230053 431.6696472167969,217.5692919266803 424.6127624511719,218.04422323910512 422.69329833984375,213.6645697552085 418.9672546386719,213.18966904501394 421.3383483886719,208.81004616334758 420.4350280761719,205.74954771788907 419.4753112792969,203.11123764101285 421.7900390625,198.73159945823136 421.3383483886719,191.7136205963434 420.8302307128906,179.78835989763684 419.9269714355469,166.6494147470621 418.9672546386719,164.6970536613262 " id="polyline66" stroke-miterlimit="10"/>
     <polyline stroke="black" stroke-width="1.28222" fill="none" points="473.8981018066406,230.3388528569758 477.62420654296875,227.22562676878988 481.8018493652344,225.95922997530943 482.3099060058594,222.8459885860084 487.4473571777344,218.46631980099664 485.1326599121094,212.76757248312242 482.197021484375,205.1691305177792 479.9388122558594,203.11123764101285 475.2530212402344,202.2141944655814 469.21234130859375,203.53338010624975 460.7440490722656,201.73930905650195 457.4132080078125,199.15374192346826 455.0985107421875,199.15374192346826 452.2757568359375,200.89503942714327 449.5094909667969,204.852550445803 447.5899963378906,207.49089112490947 444.31561279296875,207.912987686801 443.35589599609375,214.50882408345205 440.08148193359375,216.3029257354301 437.7103576660156,214.03393867437262 433.53265380859375,215.8279944230053 431.6696472167969,217.5692919266803 430.2017822265625,217.5692919266803 421.7900390625,218.8884928684638 418.515625,221.10467578121825 418.0074768066406,224.1651436244465 415.2411804199219,225.4842986628846 414.7895202636719,228.12265464310622 409.1440124511719,232.81888819897904 406.6600036621094,234.7185063408724 404.232421875,239.09812922253877 411.0070495605469,241.26159979368094 417.1042175292969,238.2538595931801 422.2980651855469,237.77897418410066 440.5331115722656,235.6155036129585 472.9383850097656,232.0801503606508 473.8981018066406,230.3388528569758 " id="polyline72" stroke-miterlimit="10"/>
     <polyline stroke="black" stroke-width="1.28222" fill="none" points="597.704345703125,113.091204538895 586.8649291992188,86.76060189613327 587.8246459960938,85.23036032396158 589.6876831054688,79.53157475329954 590.6473999023438,72.51358059029644 589.6876831054688,63.27939968926012 593.4137573242188,60.2189241954743 593.0185546875,50.562623780873764 596.74462890625,48.82133010247753 600.9222412109375,52.303913633991215 605.6080322265625,49.243453441320526 608.9389038085938,48.34641026588906 612.721435546875,53.20095680942268 615.0360717773438,61.53809070974876 615.48779296875,67.65904934787795 615.9393920898438,72.03867988010188 617.8023681640625,74.25488574452902 621.5848999023438,72.51358059029644 622.9962158203125,75.57406373463982 626.7787475585938,79.95368661630619 629.6015014648438,80.85072979173765 630.9563598632812,82.59203494597023 628.6417846679688,84.33333244964524 624.4076538085938,84.33333244964524 618.3104858398438,89.6100138078582 617.4071044921875,87.44657383894628 616.4473876953125,90.08491451805276 612.721435546875,89.6100138078582 613.1166381835938,94.46452974916156 609.898681640625,97.5250205440625 604.2531127929688,103.22380611472454 600.527099609375,108.50049512349506 599.0592651367188,115.94059349894724 597.704345703125,113.091204538895 " id="polyline76" stroke-miterlimit="10"/>
     <polyline stroke="black" stroke-width="1.28222" fill="none" points="599.0592651367188,121.0062112750993 581.2194213867188,122.32538161465254 572.35595703125,123.11687769793843 572.8076171875,138.15540273761872 592.0587768554688,131.9816782039743 596.0670776367188,133.1425432064243 598.156005859375,134.83106716402654 602.8417358398438,136.6251688160046 604.7047729492188,134.83106716402654 608.4307861328125,134.83106716402654 612.721435546875,133.08978496146665 612.721435546875,130.87357144648195 609.3905639648438,127.33821819417426 611.2535400390625,129.60718995411662 610.3502807617188,132.24551533210797 606.5677490234375,131.7706146219134 605.2128295898438,129.9765435721656 601.8819580078125,126.49394856481558 600.01904296875,121.21726720660263 599.0592651367188,121.0062112750993 " id="polyline80" stroke-miterlimit="10"/>
     <polyline stroke="black" stroke-width="1.28222" fill="none" points="385.715087890625,98.15821129024516 398.30462646484375,100.79655196935164 408.63592529296875,105.17619015213313 411.9667663574219,113.091204538895 411.45867919921875,121.21726720660263 413.8298034667969,115.94059349894724 415.69281005859375,110.29455087212773 417.61224365234375,105.44000432859411 419.9269714355469,105.0178848150299 422.69329833984375,108.02557911218537 424.1611022949219,105.0178848150299 429.2984924316406,103.64596388107657 432.62939453125,101.00762320197009 437.315185546875,100.63826193336354 443.92041015625,103.32935320687011 447.8722839355469,100.32165125915708 453.6871643066406,100.16335357261141 455.5501708984375,98.84419088361574 452.7273864746094,98.36929017342118 449.0013732910156,98.36929017342118 446.1786193847656,96.20585020450926 444.31561279296875,94.88667986495602 439.62982177734375,94.46452974916156 439.17816162109375,91.8262043711702 436.35540771484375,90.50703403161697 434.8876037597656,90.50703403161697 429.806640625,91.35130366097565 427.4355163574219,92.24834683640711 424.1611022949219,93.56751717596035 420.8302307128906,95.36158057515058 417.61224365234375,95.36158057515058 412.926513671875,95.36158057515058 409.59564208984375,91.8262043711702 407.7326354980469,91.8262043711702 403.49847412109375,92.24834683640711 402.08709716796875,90.50703403161697 403.04681396484375,87.44657383894628 405.81317138671875,85.7052686847137 405.81317138671875,83.06692800560722 402.59521484375,84.33333244964524 396.9497375488281,88.71296298186917 392.263916015625,93.14537471072344 387.5781555175781,95.7309494943147 382.892333984375,96.62797736863104 385.715087890625,98.15821129024516 " id="polyline82" stroke-miterlimit="10"/>
     <polyline stroke="black" stroke-width="1.28222" fill="none" points="448.4932556152344,160.89784797976972 427.4355163574219,160.31741547854472 430.2017822265625,154.19646449097309 430.2017822265625,148.4448977236807 428.3387756347656,140.10773322112436 425.5160217285156,133.51191212558842 427.4355163574219,126.49394856481558 430.70989990234375,119.05382723769071 433.98431396484375,114.67418905490922 435.3956604003906,115.94059349894724 438.67010498046875,111.56097061728087 441.04119873046875,106.75918231870492 443.86395263671875,104.54298410483534 448.54974365234375,105.0178848150299 452.2757568359375,107.65622549413638 457.0180358886719,109.39750769669627 459.2762451171875,110.29455087212773 459.7843322753906,116.4154942091418 460.2359619140625,121.69217556735475 458.3729553222656,125.59690538938412 456.5099182128906,129.60718995411662 456.5099182128906,133.08978496146665 458.8810729980469,133.51191212558842 459.7843322753906,131.34848745779163 460.2359619140625,128.71016207980028 463.5668029785156,126.96884162445258 467.7445068359375,125.59690538938412 469.21234130859375,126.49394856481558 470.1156311035156,130.45144428236017 471.9786376953125,133.51191212558842 473.3900451660156,136.15023750357977 474.8013916015625,139.26349419399594 470.5672607421875,143.16823166658287 469.60748291015625,147.12572738412746 467.2928466796875,148.91979843387526 466.3895568847656,153.72157908189365 463.5668029785156,157.6790594983231 464.0184326171875,160.31741547854472 460.9698486328125,159.52591939525882 448.4932556152344,160.89784797976972 " id="polyline84" stroke-miterlimit="10"/>
     <polyline stroke="black" stroke-width="1.28222" fill="none" points="599.0592651367188,121.0062112750993 599.0028076171875,116.20442297652335 586.8649291992188,86.76060189613327 581.2194213867188,88.34360171326261 583.138916015625,91.8262043711702 582.1791381835938,99.0552391645615 579.864501953125,103.90979335865268 579.864501953125,110.92775691942552 581.2194213867188,117.94574343187105 581.2194213867188,122.27261571913732 599.0592651367188,121.0062112750993 " id="polyline98" stroke-miterlimit="10"/>
     <polyline stroke="black" stroke-width="1.28222" fill="none" points="504.8355407714844,144.2763231229601 504.3274841308594,149.0781037709785 508.05352783203125,149.0781037709785 551.7498168945312,140.7937434167252 559.2583618164062,147.81170697749803 572.35595703125,153.14113127955352 572.7511596679688,137.94433915555783 572.35595703125,123.22240948896888 565.299072265625,110.45287151034609 563.944091796875,96.89180684620715 555.927490234375,97.5250205440625 548.927001953125,98.84419088361574 544.2412109375,101.00762320197009 536.7327270507812,110.66392744184941 537.1843872070312,117.31252208345813 538.087646484375,121.69217556735475 534.361572265625,122.95855705972008 531.5388793945312,125.59690538938412 526.4014282226562,126.96884162445258 518.384765625,127.33821819417426 508.5615539550781,129.60718995411662 508.5615539550781,134.40893999990476 511.38433837890625,137.46942314424814 508.5615539550781,140.10773322112436 504.8355407714844,144.06524423978408 504.8355407714844,144.2763231229601 " id="polyline104" stroke-miterlimit="10"/>
     <polyline stroke="black" stroke-width="1.28222" fill="none" points="564.33935546875,218.46631980099664 561.572998046875,218.46631980099664 545.1445922851562,221.94894541057693 524.9901123046875,226.32861419558867 507.15020751953125,227.22562676878988 502.35150146484375,227.91162166327558 497.3269958496094,230.86654241435826 489.31036376953125,235.6155036129585 485.5843200683594,238.6232744156896 482.3099060058594,238.6232744156896 480.44696044921875,242.6334977759616 475.2530212402344,245.64125327757756 471.47052001953125,247.43527842397998 468.7042236328125,249.17660652988525 466.78472900390625,254.45327258698308 465.8814697265625,256.88048847956816 482.3099060058594,254.9281579960625 486.4876403808594,251.39280474375482 491.6814880371094,251.39280474375482 506.69854736328125,250.07363440420158 509.5213317871094,252.28983261807116 525.441650390625,251.81494720899173 540.4588012695312,261.4712820511013 541.8701782226562,262.15720044001137 543.281494140625,260.8379994982279 547.0640258789062,259.94098692502666 547.0640258789062,256.88048847956816 548.927001953125,252.02598018882236 553.1046752929688,246.80208767779732 560.61328125,245.48290203712895 564.847412109375,242.3696453467128 563.43603515625,240.20623598003112 558.298583984375,241.52540631958436 560.61328125,238.887080941593 561.1213989257812,236.2487249613714 555.927490234375,235.3517123881702 558.750244140625,234.50745805992665 563.944091796875,235.8266283994799 566.2587890625,232.71337170906372 568.6298828125,229.2307767017137 571.8478393554688,230.54994704126693 570.944580078125,236.72365627379622 572.8076171875,234.08533089580487 573.315673828125,230.54994704126693 568.121826171875,223.954125945731 564.847412109375,224.4289960536953 562.024658203125,227.06733673280178 557.79052734375,227.91162166327558 557.3388671875,225.69539284717575 560.61328125,226.17032415960057 564.847412109375,223.05705216806928 566.71044921875,221.3157699655094 566.2587890625,217.78038611097145 564.33935546875,218.46631980099664 " id="polyline106" stroke-miterlimit="10"/>
     <polyline stroke="black" stroke-width="1.28222" fill="none" points="483.6648864746094,199.57588438870516 488.85870361328125,191.7136205963434 494.5042419433594,189.0752799172369 497.7786865234375,183.32371314994452 498.2867736816406,171.0290529298436 496.0849914550781,149.76408336434906 493.0928649902344,151.92752333326098 483.6648864746094,157.6790594983231 479.9388122558594,159.84253006946528 475.7611389160156,162.05871298221973 474.2933044433594,160.31741547854472 471.47052001953125,160.31741547854472 467.2928466796875,160.73955794378162 463.5668029785156,160.31741547854472 461.1957092285156,159.63145118628927 448.54974365234375,160.95063682695763 455.0985107421875,195.19623090480854 455.0985107421875,199.15374192346826 457.4132080078125,199.15374192346826 460.7440490722656,201.73930905650195 469.21234130859375,203.53338010624975 475.2530212402344,202.2141944655814 479.60009765625,203.00569054886728 482.197021484375,205.22190406385198 483.6648864746094,199.57588438870516 " id="polyline110" stroke-miterlimit="10"/>
     <polyline stroke="black" stroke-width="1.28222" fill="none" points="558.298583984375,171.50398424226842 501.0530700683594,182.0573316575792 495.85919189453125,150.4500476566045 504.8355407714844,144.2763231229601 504.3274841308594,149.0781037709785 508.05352783203125,149.0781037709785 551.7498168945312,140.7937434167252 558.9196166992188,147.44233805833392 560.61328125,149.55300448117305 558.750244140625,159.63145118628927 558.750244140625,163.1140461936393 563.944091796875,164.90813254450222 562.024658203125,169.76265613636315 558.298583984375,171.50398424226842 " id="polyline116" stroke-miterlimit="10"/>
     <polyline stroke="black" stroke-width="1.28222" fill="none" points="540.4588012695312,261.4712820511013 525.441650390625,251.81494720899173 509.5213317871094,252.28983261807116 506.69854736328125,250.07363440420158 491.6814880371094,251.39280474375482 486.4876403808594,251.39280474375482 482.3099060058594,254.9281579960625 480.44696044921875,255.29752691522663 478.58392333984375,259.30782678107425 480.8985595703125,261.4712820511013 484.1729431152344,261.9461368579505 486.4876403808594,264.1096227302078 493.0928649902344,272.02461416529695 498.2867736816406,272.4467107271885 504.8355407714844,280.3617327645079 508.5615539550781,285.63841412272086 510.87628173828125,288.6988819659491 515.6749877929688,287.85462763770556 520.92529296875,290.33463237747856 519.2315673828125,286.79927912517087 517.4815063476562,284.5303073652285 518.8928833007812,284.5303073652285 523.070556640625,283.63326418979705 523.070556640625,280.9949541129208 525.441650390625,280.6255239892962 528.716064453125,279.25362600701555 530.5791015625,274.87398782423406 534.361572265625,273.6075757296385 534.361572265625,270.96926565276226 536.7327270507812,265.2176682832396 541.8701782226562,262.0517145523263 540.4588012695312,261.4712820511013 " id="polyline120" stroke-miterlimit="10"/>
     <polyline stroke="black" stroke-width="1.28222" fill="none" points="412.926513671875,261.4712820511013 420.7738037109375,261.04912428474927 465.6556396484375,256.88048847956816 466.78472900390625,254.45327258698308 468.7042236328125,249.17660652988525 471.47052001953125,247.43527842397998 475.2530212402344,245.64125327757756 480.44696044921875,242.6334977759616 482.3099060058594,238.6232744156896 485.5843200683594,238.6232744156896 489.31036376953125,235.6155036129585 502.2386474609375,227.96437990823324 492.6412353515625,229.44182498265945 472.9383850097656,232.0801503606508 440.5331115722656,235.6155036129585 422.2980651855469,237.77897418410066 417.1042175292969,238.2538595931801 411.2893371582031,241.31432743640835 404.4582214355469,239.09812922253877 399.2643737792969,245.27183845506806 399.7724609375,250.91790403356026 397.8529968261719,257.5137710324416 394.7479553222656,260.2575975992331 394.0704650878906,261.7350732758896 400.22406005859375,261.8933786129928 412.926513671875,261.4712820511013 " id="polyline124" stroke-miterlimit="10"/>
     <polyline stroke="black" stroke-width="1.28222" fill="none" points="582.8565673828125,93.67304896699079 582.1791381835938,99.0552391645615 579.864501953125,103.90979335865268 579.864501953125,110.92775691942552 581.2194213867188,117.94574343187105 581.1629638671875,122.3781398596102 572.1865844726562,123.16962829233853 565.299072265625,110.45287151034609 563.944091796875,96.89180684620715 582.8565673828125,93.67304896699079 " id="polyline128" stroke-miterlimit="10"/>
     <polyline stroke="black" stroke-width="1.28222" fill="none" points="538.6522216796875,186.64801812130645 542.8298950195312,183.5347767320054 545.652587890625,188.44208917105425 544.7493286132812,196.3043376623009 548.927001953125,199.8397062157237 554.51611328125,205.1163569717064 557.3388671875,207.7546976508129 554.9677124023438,209.0211250465236 549.8302612304688,209.0211250465236 554.51611328125,211.65946572563007 560.16162109375,212.97862076406818 563.944091796875,214.29779110362142 566.2587890625,217.78038611097145 561.572998046875,218.46631980099664 545.1445922851562,221.94894541057693 524.9901123046875,226.32861419558867 507.15020751953125,227.22562676878988 492.6412353515625,229.44182498265945 472.9383850097656,232.0801503606508 473.8981018066406,230.3388528569758 477.62420654296875,227.22562676878988 481.8018493652344,225.95922997530943 482.3099060058594,222.8459885860084 487.4473571777344,218.46631980099664 489.31036376953125,218.8884928684638 495.85919189453125,220.2076479069019 501.0530700683594,218.46631980099664 506.19049072265625,214.93096654868896 509.5213317871094,211.02624437721715 511.38433837890625,204.37761913337818 513.6990356445312,200.47289696190637 516.5217895507812,197.35967087372046 520.247802734375,197.83457158391502 521.20751953125,194.72133019461398 523.070556640625,190.81660802314218 527.3612060546875,185.06502595473466 530.12744140625,181.1602731810326 537.1843872070312,185.962053829051 539.5554809570312,186.43695453924556 538.6522216796875,186.64801812130645 " id="polyline130" stroke-miterlimit="10"/>
     <polyline stroke="black" stroke-width="1.28222" fill="none" points="417.61224365234375,105.44000432859411 415.69281005859375,110.29455087212773 413.8298034667969,115.94059349894724 411.45867919921875,121.21726720660263 411.45867919921875,123.4334883721449 414.2814636230469,119.05382723769071 418.0074768066406,115.09632386958856 419.9269714355469,112.88014095683411 418.0074768066406,116.83764432493626 416.14447021484375,120.79514769303842 414.2814636230469,127.33821819417426 414.7895202636719,131.7706146219134 413.8298034667969,138.36645101856448 413.8298034667969,146.28145775476878 414.7895202636719,150.66109593755027 414.2814636230469,152.61348762551643 381.424560546875,153.45774195375998 380.5212097167969,151.7164597512001 376.6258544921875,145.7010405546589 375.0450744628906,142.5350409204002 374.875732421875,136.7834588519927 372.5610656738281,135.51706205851224 370.69805908203125,131.9816782039743 367.87530517578125,130.2403960014144 359.8586730957031,128.0241824864297 357.9956359863281,125.3858494578808 358.955322265625,118.36788589710795 357.9956359863281,116.20442297652335 357.5439758300781,112.66906972421566 357.5439758300781,109.55582833491462 359.8586730957031,107.81453848179717 364.1492004394531,104.27915462725923 363.6411437988281,103.01274253266365 363.1894836425781,95.99477897189081 365.0525207519531,95.7309494943147 369.7383117675781,95.36158057515058 373.52081298828125,94.46452974916156 376.3435363769531,93.98963668952456 377.2467956542969,93.14537471072344 378.6581726074219,95.7309494943147 382.892333984375,96.62797736863104 387.5781555175781,95.7309494943147 385.715087890625,98.15821129024516 398.30462646484375,100.79655196935164 408.63592529296875,105.17619015213313 411.9667663574219,113.091204538895 417.61224365234375,105.44000432859411 " id="polyline134" stroke-miterlimit="10"/>
     <polyline stroke="black" stroke-width="1.28222" fill="none" points="485.1326599121094,212.76757248312242 487.5038146972656,218.51915455152994 495.85919189453125,220.2076479069019 501.0530700683594,218.46631980099664 506.19049072265625,214.93096654868896 509.5213317871094,211.02624437721715 511.38433837890625,204.37761913337818 513.6990356445312,200.47289696190637 516.5217895507812,197.35967087372046 520.247802734375,197.83457158391502 521.20751953125,194.72133019461398 523.070556640625,190.81660802314218 527.3612060546875,185.06502595473466 530.12744140625,181.1602731810326 537.1843872070312,185.962053829051 539.5554809570312,186.43695453924556 535.7730102539062,183.32371314994452 529.67578125,179.78835989763684 514.6587524414062,186.43695453924556 514.6587524414062,179.57728101446082 501.16595458984375,181.89901101936084 498.56903076171875,169.23499718121093 497.7786865234375,183.32371314994452 494.5042419433594,189.0752799172369 488.85870361328125,191.7136205963434 483.6648864746094,199.57588438870516 482.3099060058594,204.852550445803 485.1326599121094,212.76757248312242 " id="polyline140" stroke-miterlimit="10"/>
     <g id="svg_1">
      <polyline stroke="black" stroke-width="1.28222" fill="none" points="347.664306640625,338.56344123526287 343.4866638183594,341.20172070990884 340.66387939453125,338.9855377971544 340.66387939453125,336.8221131293576 337.3895263671875,338.56344123526287 338.80084228515625,341.20172070990884 337.8411865234375,343.3651759799359 334.1151428222656,347.7448141627174 328.4696044921875,350.85807085313354 322.8804931640625,353.49638093000976 318.1382751464844,353.02149552093033 314.8638916015625,352.5993377545783 315.7671813964844,354.7628236268356 317.6866149902344,356.5040599260501 317.2349853515625,358.2981768791433 311.5894775390625,359.1424006051566 308.7667236328125,360.5143291896675 309.2183532714844,362.255687897803 307.86346435546875,363.996985401478 305.0406799316406,364.41908196336954 305.0406799316406,366.63529547835424 303.5728454589844,369.6957633215825 300.8065490722656,371.0676919060934 300.35491943359375,373.23114717612043 304.0809631347656,373.23114717612043 305.0406799316406,375.8694878552269 303.1777038574219,379.3521134648072 304.5325622558594,381.9904235416834 305.4923400878906,387.26710489989637 305.0406799316406,390.7496999072464 305.9439697265625,392.7548498401702 298.49188232421875,390.7496999072464 290.47528076171875,389.48331841488107 286.2975769042969,387.7419903089758 280.1439514160156,382.46530895076285 277.3211975097656,375.8694878552269 273.59515380859375,369.27366675969097 272.18377685546875,364.41908196336954 268.90936279296875,361.41137236509894 266.59466552734375,359.1424006051566 264.22357177734375,356.5040599260501 264.22357177734375,352.5993377545783 261.40081787109375,349.48614226862264 261.40081787109375,346.0034860568121 257.61834716796875,342.9429876113536 253.44064331054688,339.8298227276282 250.1097869873047,336.8221131293576 243.5609893798828,335.92506995392614 237.01220703125,334.1838030524814 232.32640075683594,335.92506995392614 231.36666870117188,342.04600564038265 229.052001953125,343.84003078678506 226.22926330566406,345.1064734836109 221.54347229003906,342.4681328045044 214.99465942382812,337.66636745760115 211.66380310058594,334.1838030524814 210.30889892578125,328.0100479166067 206.01829528808594,322.311239394272 205.62310791015625,318.7758861419643 198.509765625,313.974120795061 197.6064910888672,311.33578011595455 191.96095275878906,305.5841827464319 186.76707458496094,302.84035617964037 187.10581970214844,300.6769009096133 233.73777770996094,303.631821660696 238.423583984375,240.417299562092 275.00653076171875,240.83947262955917 274.4984436035156,271.12754038763524 279.69232177734375,272.0245835630667 282.9667663574219,273.34375390261994 286.2975769042969,275.08505140629495 290.02362060546875,276.4042217458482 294.7094421386719,276.8791377571579 296.5723876953125,278.14548864729295 298.49188232421875,279.8868167531982 303.1777038574219,279.5174478340341 306.3955993652344,279.5174478340341 309.2183532714844,281.2587453377091 313.4524841308594,280.7838293263994 318.1382751464844,281.2587453377091 325.1951904296875,280.7838293263994 329.4293212890625,279.5174478340341 334.5667419433594,279.8868167531982 338.2928466796875,283.0000734436144 341.62359619140625,283.4221700055059 345.3497009277344,284.74134034505914 347.2691650390625,296.1917462369165 347.2691650390625,306.69228950392426 351.9549255371094,311.9689708621372 354.2696228027344,317.24565222035017 355.1728820800781,322.52230297633287 353.8180236816406,327.32406832323613 350.9952087402344,331.70376771047813 350.9952087402344,334.8169631964338 351.44683837890625,337.87743103966204 347.664306640625,338.56344123526287 " id="polyline126" stroke-miterlimit="10"/>
      <polyline stroke="black" stroke-width="1.28222" fill="none" points="465.8814697265625,316.77076681127073 442.9042053222656,315.9265124830272 432.62939453125,315.9265124830272 433.53265380859375,322.94449134491515 428.9598083496094,323.2610408146611 428.9598083496094,319.7784764095413 426.5322265625,318.5648225599034 425.5724792480469,323.63044033605547 421.7900390625,323.41934615176433 420.4350280761719,313.7630878152304 420.8302307128906,261.04912428474927 451.37249755859375,258.4107836056428 462.6070556640625,294.3976598860536 460.7440490722656,301.4683969928992 463.5668029785156,305.84806577791096 462.6070556640625,311.49411605528803 465.4298095703125,315.5043241144449 465.8814697265625,316.77076681127073 " id="polyline10" stroke-miterlimit="10"/>
      <polyline stroke="black" stroke-width="1.28222" fill="none" points="95.08385467529297,241.78925874883316 94.40636444091797,244.37482588186685 96.77750396728516,247.01313595874308 97.73722839355469,250.91790403356026 98.64051055908203,253.13410224742984 97.22914123535156,256.6694861019678 92.09171295166016,259.72995394519603 92.54336547851562,261.04912428474927 90.22870635986328,264.1096227302078 89.72061157226562,266.3258056429622 89.72061157226562,272.4467107271885 89.72061157226562,278.1455192495232 106.60072326660156,289.38483095708943 115.06898498535156,294.6615123153024 125.34382629394531,301.2046057681109 156.28128051757812,304.42334834621215 169.26596069335938,226.17032415960057 107.89918518066406,216.6195517107517 105.24578094482422,229.44182498265945 103.38275146484375,231.18312248633447 100.05189514160156,228.5975706544159 97.22914123535156,230.7609953222127 96.2694091796875,241.26159979368094 95.08385467529297,241.78925874883316 " id="polyline32" stroke-miterlimit="10"/>
      <polyline stroke="black" stroke-width="1.28222" fill="none" points="399.2643737792969,249.17660652988525 393.61883544921875,250.07363440420158 391.30419921875,248.27959395668404 392.715576171875,246.11612338554187 394.126953125,241.26159979368094 340.1557312011719,243.4777827064354 342.07525634765625,284.3192437831676 345.3497009277344,284.42476027308294 346.76104736328125,292.65639298460883 383.8520812988281,291.33719204282534 384.2472839355469,290.01805230550235 383.8520812988281,285.1634675091809 384.2472839355469,280.3617327645079 387.5781555175781,275.08505140629495 391.75579833984375,270.230527814434 389.8927917480469,265.8508590294223 393.61883544921875,263.21254895254606 394.52215576171875,260.52141942625167 397.909423828125,257.566498675169 399.7724609375,250.91790403356026 399.2643737792969,249.17660652988525 " id="polyline34" stroke-miterlimit="10"/>
      <polyline stroke="black" stroke-width="1.28222" fill="none" points="89.72061157226562,272.4467107271885 89.72061157226562,266.3258056429622 90.22870635986328,264.1096227302078 92.54336547851562,261.04912428474927 92.09171295166016,259.72995394519603 97.22914123535156,256.6694861019678 98.64051055908203,253.13410224742984 97.73722839355469,250.91790403356026 96.77750396728516,247.01313595874308 94.40636444091797,244.37482588186685 96.21295928955078,241.05049030827468 66.29170989990234,199.99798095059668 48.451873779296875,172.77036573463374 59.85581588745117,132.9842531704362 14.635221481323242,122.16706862699175 12.602829933166504,123.4334883721449 13.562566757202148,126.07181375013624 13.562566757202148,127.81311125381126 7.408953666687012,137.46942314424814 5.094292640686035,141.00479169767095 5.094292640686035,146.28145775476878 7.408953666687012,148.91979843387526 7.917049884796143,157.20420469147393 7.013766765594482,164.22216825224677 8.368692398071289,169.97373501953916 11.191450119018555,174.35338850343578 11.699548721313477,181.37135206420862 16.38532829284668,181.37135206420862 16.83696937561035,179.63003925941848 19.208087921142578,180.52708243484994 19.208087921142578,182.26839523964009 17.28860855102539,183.16543841507155 16.83696937561035,185.3288477817532 16.83696937561035,187.07014528542823 14.91749095916748,186.64801812130645 12.602829933166504,189.7084859645347 15.425589561462402,192.82172735383574 18.24834632873535,198.94264773917712 16.83696937561035,201.5809884182836 14.91749095916748,203.32230122307374 18.24834632873535,211.23732326039317 20.11136817932129,214.77267651270085 22.426027297973633,220.41869618784767 24.797147750854492,225.2732809841691 24.797147750854492,229.70567741190825 23.89386749267578,233.18830302148854 23.385766983032227,234.08533089580487 27.619903564453125,235.3517123881702 29.934566497802734,237.99005306727668 32.757328033447266,237.56789530092465 35.12844467163086,237.99005306727668 37.44310760498047,239.73131996872144 38.4028434753418,242.00033763200918 39.30612564086914,244.58588946392774 43.08863067626953,245.0080013269344 46.3630256652832,246.80208767779732 47.77440643310547,248.54338518147233 50.14552307128906,251.65665717300362 52.008541107177734,254.2421631015768 53.87156677246094,256.88048847956816 56.69432067871094,257.3026462459202 57.14596939086914,258.1996588191214 58.105709075927734,260.8379994982279 58.55734634399414,265.2176682832396 59.00898361206055,268.7002938928199 61.83174133300781,270.96926565276226 64.65450286865234,271.3386039696961 67.47725677490234,271.8135199810058 75.88907623291016,273.6075757296385 82.0427017211914,274.45183005788203 86.22039031982422,273.97697525103285 89.72061157226562,272.4467107271885 " id="polyline36" stroke-miterlimit="10"/>
      <polyline stroke="black" stroke-width="1.28222" fill="none" points="176.1534881591797,169.28777072728371 231.59246826171875,174.98656394850332 254.4003448486328,176.78063499825112 251.0130615234375,233.08274062822784 238.42355346679688,232.76616055625163 169.435302734375,226.32861419558867 176.1534881591797,169.28777072728371 " id="polyline38" stroke-miterlimit="10"/>
      <polyline stroke="black" stroke-width="1.28222" fill="none" points="459.2762451171875,328.01007851883696 453.6871643066406,325.79386500385226 448.54974365234375,322.7334583650845 443.35589599609375,322.31126999650223 437.7103576660156,325.37176844196074 433.8149719238281,325.37176844196074 433.53265380859375,322.94449134491515 432.62939453125,315.9265124830272 442.9042053222656,315.9265124830272 465.7685546875,316.77076681127073 466.1637268066406,319.7256875623534 501.4482116699219,319.56741282748044 502.5208740234375,320.72827782993045 504.496826171875,320.72827782993045 503.3677062988281,310.649800522584 512.231201171875,311.7051796373489 514.2070922851562,317.8788735687631 518.8928833007812,325.79386500385226 521.7156982421875,331.96762013972693 529.2241821289062,343.36520658216614 532.0469360351562,349.96105827993233 537.635986328125,357.8760497150215 540.910400390625,362.25571850003325 541.4185180664062,373.23114717612043 539.95068359375,378.92995569845516 539.0474243164062,381.5683269797919 538.5957641601562,383.73178224981893 533.9099731445312,386.84494713354434 530.5791015625,386.84494713354434 528.2644653320312,385.1036802320996 526.85302734375,382.46530895076285 524.0303344726562,379.8269988738866 519.8526611328125,376.29164562157894 515.1668090820312,373.7060631874301 515.1668090820312,370.5928370992442 512.7957153320312,367.95449642013773 512.7957153320312,363.996985401478 509.5213317871094,364.89405917913973 505.7388000488281,361.7807718864933 503.3677062988281,359.1424618096171 503.87579345703125,356.5041211305106 504.8355407714844,353.91856929859205 504.3274841308594,349.96105827993233 502.46441650390625,350.8581014553638 501.0530700683594,353.02149552093033 500.6014404296875,346.0035472612726 501.0530700683594,340.7268965052899 500.1498107910156,336.34722772027817 494.9559326171875,333.28679047928017 489.8184814453125,330.17350318663375 485.5843200683594,328.01007851883696 480.44696044921875,325.79386500385226 474.8013916015625,323.63044033605547 472.9383850097656,326.2688116173922 470.1156311035156,328.9071216942684 465.4298095703125,328.432236285189 459.2762451171875,328.01007851883696 " id="polyline44" stroke-miterlimit="10"/>
      <polyline stroke="black" stroke-width="1.28222" fill="none" points="510.87628173828125,288.6988819659491 508.5615539550781,285.63841412272086 504.8355407714844,280.3617327645079 498.2867736816406,272.4467107271885 493.0928649902344,272.02461416529695 486.4876403808594,264.1096227302078 484.1729431152344,261.9461368579505 480.8985595703125,261.4712820511013 478.58392333984375,259.30782678107425 480.44696044921875,255.29752691522663 465.4298095703125,257.09161326608955 451.37249755859375,258.4107836056428 462.6070556640625,294.3976598860536 460.7440490722656,301.4683969928992 463.5668029785156,305.84806577791096 462.66351318359375,311.4413272081001 465.2040100097656,314.55455329628603 466.3895568847656,320.0422676343296 466.8976745605469,319.7256875623534 501.50469970703125,319.56741282748044 502.80316162109375,320.8338555243063 504.3839111328125,320.8338555243063 503.3677062988281,310.649800522584 512.3440551757812,311.75796848453683 510.87628173828125,308.2225846299989 511.8359680175781,299.46327766220566 513.6990356445312,298.56626508900445 514.6587524414062,296.82496758532943 511.8359680175781,296.40277921674715 520.8123779296875,290.28184353029064 515.4491577148438,287.85462763770556 510.87628173828125,288.6988819659491 " id="polyline46" stroke-miterlimit="10"/>
      <polyline stroke="black" stroke-width="1.28222" fill="none" points="161.3622283935547,116.52102600017224 157.74908447265625,114.83250204257001 154.47470092773438,114.83250204257001 151.20030212402344,115.72954521800148 146.96615600585938,116.57379954624503 140.3609161376953,115.72954521800148 141.32064819335938,112.19416136346354 138.49786376953125,109.55582833491462 137.53814697265625,106.07322567700703 134.77183532714844,103.01274253266365 135.22348022460938,100.37440185355717 134.32020568847656,95.51987826169625 132.85235595703125,96.41689848545502 130.53768920898438,96.89180684620715 128.67469787597656,98.15821129024516 128.16659545898438,95.51987826169625 129.12632751464844,88.97681541111797 132.45716857910156,82.32820546839412 130.98934936523438,81.06178572324097 129.63441467285156,80.58688501304641 127.2633056640625,78.42346799580719 126.30355834960938,74.9408423862269 123.98889923095703,71.40548913391922 121.16614532470703,68.7671561053703 120.26287078857422,64.38750262147369 120.65804290771484,56.47248823471182 121.279052734375,46.18299707392862 113.14952087402344,44.59997430512658 108.91537475585938,63.54323299211501 106.14905548095703,74.7825523502388 103.6650390625,83.54182871580178 89.72061157226562,139.42179953109917 122.29525756835938,147.07298444028493 155.03924560546875,152.61348762551643 161.3622283935547,116.52102600017224 " id="polyline62" stroke-miterlimit="10"/>
      <polyline stroke="black" stroke-width="1.28222" fill="none" points="324.23541259765625,181.58240034515438 320.9610290527344,161.84764940015884 317.6866149902344,156.09608263286646 316.2752380371094,143.37929524864376 318.3076477050781,142.06012490909052 374.9886474609375,142.95715278340685 380.5212097167969,151.7164597512001 383.343994140625,156.57099864417614 386.6183776855469,160.95063682695763 388.5378723144531,163.58896220494898 386.6183776855469,167.12431545725667 383.8520812988281,170.13202505552727 379.5615234375,171.92609610527506 377.2467956542969,173.66737830783495 380.069580078125,176.78063499825112 378.2065734863281,178.52193250192613 379.1098327636719,184.22074102426086 373.8595275878906,187.01737173935544 373.0126953125,185.5399113638141 370.69805908203125,182.4266852756282 364.5444030761719,184.22074102426086 325.64678955078125,185.5399113638141 324.23541259765625,181.58240034515438 " id="polyline68" stroke-miterlimit="10"/>
      <polyline stroke="black" stroke-width="1.28222" fill="none" points="339.92999267578125,205.5912729830161 338.80084228515625,204.852550445803 335.0748291015625,198.2566987480368 337.2201232910156,196.51538594324666 336.9378356933594,194.35196127544987 253.44064331054688,191.23873518726396 251.06948852539062,232.97719353608227 339.92999267578125,235.984918435468 340.1557312011719,207.7546976508129 339.92999267578125,205.5912729830161 " id="polyline70" stroke-miterlimit="10"/>
      <polyline stroke="black" stroke-width="1.28222" fill="none" points="405.41796875,326.4270863522652 403.95013427734375,319.88399289945664 401.6354675292969,319.88399289945664 380.5212097167969,319.88399289945664 379.5615234375,313.7630878152304 382.892333984375,309.330660785261 383.8520812988281,306.2701623398025 388.5378723144531,303.2097250988045 386.166748046875,298.830086916023 383.8520812988281,291.33719204282534 346.76104736328125,292.65639298460883 347.2691650390625,296.1917462369165 347.2691650390625,306.69228950392426 351.9549255371094,311.9689708621372 354.26959228515625,317.24565222035017 355.1728820800781,322.52230297633287 353.8179626464844,327.32412952769664 350.9952087402344,331.7037983127084 350.9952087402344,334.8169631964338 351.44683837890625,337.8774616418923 356.6407165527344,335.92513115838665 361.7781066894531,338.5634718374931 369.2301940917969,339.46048441069433 375.83544921875,338.5634718374931 382.38427734375,338.08855582618344 382.38427734375,340.7268965052899 387.0700378417969,342.4681328045044 392.715576171875,346.0035472612726 394.126953125,342.94307941804436 398.30462646484375,343.36520658216614 400.22406005859375,342.0460362426129 402.59521484375,341.6239090784911 409.1440124511719,343.36520658216614 411.9667663574219,346.47849387481256 413.8298034667969,345.1064734836109 414.7895202636719,342.4681328045044 412.926513671875,342.0460362426129 410.103759765625,339.46048441069433 406.77288818359375,337.6663980598314 408.63592529296875,335.0280879829552 411.0070495605469,333.70885643894144 411.0070495605469,330.64848040240395 408.2407531738281,331.5455235778354 405.81317138671875,335.45021514707696 404.9098815917969,333.70885643894144 405.81317138671875,330.64848040240395 403.95013427734375,329.8041648696999 401.6354675292969,331.0705463620652 396.44158935546875,329.8041648696999 402.59521484375,328.01007851883696 408.2407531738281,328.9071216942684 405.41796875,326.4270863522652 " id="polyline74" stroke-miterlimit="10"/>
      <polyline stroke="black" stroke-width="1.28222" fill="none" points="318.1382751464844,140.31881210430038 317.6866149902344,119.21212492423638 314.4122009277344,115.72954521800148 314.8638916015625,111.77204184989932 317.2349853515625,108.28940858976148 316.2752380371094,103.90979335865268 314.8638916015625,95.51987826169625 313.9041442871094,88.0797722356865 314.4122009277344,83.22521804159533 310.68621826171875,76.68216284157461 310.68621826171875,66.55095789150073 319.3238220214844,66.39263725328237 331.51812744140625,65.91774419364538 332.9295349121094,65.49559407785091 332.9295349121094,61.53809070974876 334.3409118652344,61.53809070974876 335.75225830078125,65.91774419364538 337.6152648925781,69.40034685155297 342.30108642578125,71.61656036653767 346.027099609375,72.51358059029644 349.3580017089844,73.41060081405521 348.849853515625,70.19185058539642 359.4634704589844,70.19185058539642 356.6407165527344,72.93572305553334 360.818359375,74.25488574452902 365.0525207519531,75.57406373463982 366.4638977050781,77.31535358775727 380.069580078125,77.7902619485094 386.166748046875,77.31535358775727 387.5781555175781,77.7902619485094 378.6581726074219,83.06692800560722 370.1899108886719,88.71296298186917 366.4638977050781,91.35130366097565 363.1894836425781,95.99477897189081 363.6411437988281,103.01274253266365 364.1492004394531,104.27915462725923 359.8586730957031,107.81453848179717 357.5439758300781,109.55582833491462 357.5439758300781,112.66906972421566 357.9956359863281,116.20442297652335 358.955322265625,118.36788589710795 357.9956359863281,125.3858494578808 359.8586730957031,128.0241824864297 367.87530517578125,130.2403960014144 370.69805908203125,131.9816782039743 372.5610656738281,135.51706205851224 374.875732421875,136.7834588519927 374.875732421875,141.63798244385362 375.38385009765625,142.95715278340685 318.1382751464844,142.06012490909052 318.1382751464844,140.31881210430038 " id="polyline86" stroke-miterlimit="10"/>
      <polyline stroke="black" stroke-width="1.28222" fill="none" points="393.61883544921875,263.21254895254606 389.8927917480469,265.8508590294223 391.75579833984375,270.230527814434 387.5781555175781,275.08505140629495 384.2472839355469,280.3617327645079 383.8520812988281,285.1634675091809 384.0214538574219,291.4427391349709 386.166748046875,298.830086916023 388.5378723144531,303.2097250988045 383.8520812988281,306.2701623398025 382.892333984375,309.330660785261 379.5615234375,313.7630878152304 380.5212097167969,319.88399289945664 401.6354675292969,319.88399289945664 403.95013427734375,319.88399289945664 405.41796875,326.4270863522652 409.8215026855469,324.52748351148693 416.200927734375,322.7334583650845 421.7900390625,323.41934615176433 420.4350280761719,313.7630878152304 420.4350280761719,261.4712820511013 412.926513671875,261.4712820511013 394.126953125,261.9461368579505 393.61883544921875,263.21254895254606 " id="polyline88" stroke-miterlimit="10"/>
      <polyline stroke="black" stroke-width="1.28222" fill="none" points="402.59521484375,241.73648520276038 399.2643737792969,245.27183845506806 399.2643737792969,249.17660652988525 393.61883544921875,250.07363440420158 391.30419921875,248.27959395668404 392.715576171875,246.11612338554187 394.126953125,241.26159979368094 340.1557312011719,243.4777827064354 339.92999267578125,205.32746645711268 338.80084228515625,204.852550445803 335.0748291015625,198.3622152379521 337.2201232910156,196.40986945333134 336.824951171875,194.4047042192924 325.64678955078125,185.5399113638141 364.5444030761719,184.22074102426086 370.69805908203125,182.4266852756282 373.8595275878906,187.01737173935544 375.83544921875,192.98003269093897 377.2467956542969,197.35967087372046 380.5212097167969,201.36995543845296 385.715087890625,206.6466214955508 391.30419921875,207.01595981248465 391.75579833984375,210.12921650290082 390.4009094238281,212.76757248312242 390.4009094238281,216.3029257354301 394.126953125,220.6825639182116 397.909423828125,223.3209198984332 402.08709716796875,226.32861419558867 401.12738037109375,228.96693957358002 400.22406005859375,229.86396744789636 404.2888488769531,233.13546827095524 406.6035461425781,234.82403813190285 402.59521484375,241.73648520276038 " id="polyline90" stroke-miterlimit="10"/>
      <polyline stroke="black" stroke-width="1.28222" fill="none" points="120.65804290771484,56.47248823471182 120.26287078857422,64.38750262147369 121.16614532470703,68.7671561053703 123.98889923095703,71.40548913391922 126.30355834960938,74.9408423862269 127.2633056640625,78.42346799580719 129.63441467285156,80.58688501304641 130.98934936523438,81.06178572324097 132.45716857910156,82.32820546839412 129.12632751464844,88.97681541111797 128.16659545898438,95.51987826169625 128.67469787597656,98.15821129024516 130.53768920898438,96.89180684620715 132.85235595703125,96.41689848545502 134.32020568847656,95.51987826169625 135.22348022460938,100.37440185355717 134.77183532714844,103.01274253266365 137.53814697265625,106.07322567700703 138.49786376953125,109.55582833491462 141.32064819335938,112.19416136346354 140.3609161376953,115.72954521800148 146.96615600585938,116.57379954624503 151.20030212402344,115.72954521800148 154.47470092773438,114.83250204257001 157.74908447265625,114.83250204257001 161.53160095214844,116.57379954624503 162.4348907470703,110.45287151034609 236.6169891357422,118.57893417805371 241.41566467285156,63.17386789822967 213.80909729003906,60.6410666607112 191.7915496826172,58.47763434235685 172.08871459960938,55.83929366325037 152.38584899902344,51.829035875469344 135.95738220214844,49.243453441320526 121.44841766357422,46.18299707392862 120.65804290771484,56.47248823471182 " id="polyline92" stroke-miterlimit="10"/>
      <polyline stroke="black" stroke-width="1.28222" fill="none" points="320.9610290527344,161.84764940015884 324.23541259765625,181.74072098337274 325.8161926269531,185.59268490988688 336.65557861328125,194.35196127544987 331.40521240234375,194.08813944843132 253.44064331054688,191.23873518726396 254.4003448486328,176.78063499825112 231.874755859375,175.09209573953376 234.245849609375,146.96745264925448 294.7093505859375,149.55300448117305 300.3548889160156,153.45774195375998 303.1776428222656,153.45774195375998 304.5325622558594,151.7164597512001 308.25860595703125,152.61348762551643 314.4122009277344,156.57099864417614 318.1382751464844,158.73442331197293 320.9610290527344,161.84764940015884 " id="polyline94" stroke-miterlimit="10"/>
      <polyline stroke="black" stroke-width="1.28222" fill="none" points="92.37400817871094,235.77382425117685 66.29170989990234,199.99798095059668 48.451873779296875,172.77036573463374 59.79936981201172,133.037026716509 122.12589263916016,146.91464850095144 105.24578094482422,229.44182498265945 103.38275146484375,231.18312248633447 100.05189514160156,228.5975706544159 97.22914123535156,230.7609953222127 96.2694091796875,241.26159979368094 92.37400817871094,235.77382425117685 " id="polyline96" stroke-miterlimit="10"/>
      <polyline stroke="black" stroke-width="1.28222" fill="none" points="186.82351684570312,302.89308382236777 166.4431915283203,301.4683969928992 165.82217407226562,305.373119164371 156.33770751953125,304.47613719340006 169.26596069335938,226.17032415960057 238.36709594726562,232.76616055625163 238.5364532470703,240.31176777106157 233.73776245117188,303.631821660696 187.275146484375,300.571384419698 186.82351684570312,302.89308382236777 " id="polyline102" stroke-miterlimit="10"/>
      <polyline stroke="black" stroke-width="1.28222" fill="none" points="316.2752380371094,103.90979335865268 314.8638916015625,95.51987826169625 313.9041442871094,88.0797722356865 314.4122009277344,83.22521804159533 310.68621826171875,76.68216284157461 310.68621826171875,66.55095789150073 294.4835205078125,65.91774419364538 276.75665283203125,65.28453814634759 258.7474060058594,64.38750262147369 241.35922241210938,63.27939968926012 237.91546630859375,105.65108321177013 316.5574951171875,109.02815407864728 316.2752380371094,103.90979335865268 " id="polyline108" stroke-miterlimit="10"/>
      <polyline stroke="black" stroke-width="1.28222" fill="none" points="238.36709594726562,232.66059816299094 339.92999267578125,235.9321448893952 341.62359619140625,283.42220060773616 338.29278564453125,283.0000734436144 334.5667419433594,279.8868167531982 329.4293212890625,279.5174478340341 325.1951904296875,280.78389053085994 318.1382751464844,281.25877593993937 313.4524841308594,280.78389053085994 309.2183532714844,281.25877593993937 306.3955993652344,279.5174478340341 303.1776428222656,279.5174478340341 298.4918518066406,279.8868167531982 296.5723876953125,278.1455192495232 294.7093505859375,276.8791377571579 290.0235900878906,276.4042217458482 286.2975769042969,275.08505140629495 282.9666748046875,273.3437845048502 279.6922607421875,272.02461416529695 274.4983825683594,271.12754038763524 275.00653076171875,240.83947262955917 238.42355346679688,240.417299562092 238.36709594726562,232.66059816299094 " id="polyline112" stroke-miterlimit="10"/>
      <polyline stroke="black" stroke-width="1.28222" fill="none" points="33.717063903808594,67.23690688264105 31.402406692504883,69.40034685155297 31.402406692504883,74.25488574452902 26.716623306274414,80.85072979173765 26.208526611328125,83.91118998440834 27.1118106842041,86.07462995332025 24.797147750854492,88.34360171326261 23.385766983032227,90.98193474181153 22.934127807617188,95.7309494943147 20.563011169433594,99.26630274662239 18.24834632873535,100.63826193336354 19.603273391723633,102.80169425171789 15.425589561462402,104.54298410483534 14.522305488586426,108.50049512349506 13.562566757202148,111.56097061728087 14.91749095916748,112.45799084103965 13.05447006225586,115.09632386958856 13.05447006225586,119.05382723769071 14.804576873779297,122.16706862699175 59.96872329711914,132.9842531704362 89.6076889038086,139.52731602101449 102.42301940917969,89.50447436627019 103.77794647216797,83.59458696075944 97.73722839355469,83.22521804159533 93.05146026611328,82.32820546839412 88.36566925048828,81.48393583903544 80.34904479980469,81.06178572324097 78.03437805175781,81.95882889867244 73.80024719238281,80.58688501304641 70.97749328613281,81.06178572324097 66.7998046875,81.06178572324097 62.50920867919922,79.74261538368773 60.19454574584961,80.16475784892464 58.78316879272461,79.32048821956596 55.96041488647461,78.42346799580719 52.17790985107422,79.32048821956596 46.58885192871094,79.32048821956596 43.766090393066406,74.9408423862269 45.17747116088867,68.7671561053703 44.274192810058594,67.0258356500226 36.76564025878906,64.80964508671059 33.717063903808594,67.23690688264105 " id="polyline114" stroke-miterlimit="10"/>
      <polyline stroke="black" stroke-width="1.28222" fill="none" points="318.1382751464844,158.73442331197293 314.4122009277344,156.57099864417614 308.25860595703125,152.61348762551643 304.5325622558594,151.7164597512001 303.1776428222656,153.45774195375998 300.3548889160156,153.45774195375998 294.7093505859375,149.55300448117305 234.4152374267578,146.75637376607847 237.91546630859375,105.65108321177013 315.76715087890625,109.18646706630807 314.8638916015625,111.77204184989932 314.4122009277344,115.72954521800148 317.6866149902344,119.21212492423638 318.1382751464844,140.31881210430038 318.1382751464844,142.5350409204002 316.2752380371094,143.37929524864376 317.6866149902344,156.09608263286646 320.9610290527344,161.84764940015884 318.1382751464844,158.73442331197293 " id="polyline122" stroke-miterlimit="10"/>
      <polyline stroke="black" stroke-width="1.28222" fill="none" points="54.831298828125,42.172708683917335 55.28294372558594,43.966783558943916 52.460182189941406,47.08002112296617 50.14552307128906,50.08771924540042 49.63742446899414,52.303913633991215 50.14552307128906,54.098007635411705 50.14552307128906,55.83929366325037 53.419918060302734,54.94225048781891 54.831298828125,52.72605609922812 57.14596939086914,50.562623780873764 57.65406036376953,47.08002112296617 58.105709075927734,43.54466022010092 55.79103469848633,43.54466022010092 55.28294372558594,41.32844287983744 56.18622970581055,39.58715302671999 58.55734634399414,36.94881617289229 58.55734634399414,32.1470355248739 61.83174133300781,31.25 77.80855560302734,35.15473747258693 89.04315185546875,38.690109851288526 105.47160339355469,42.64761321939068 113.09304809570312,44.59997430512658 106.14905548095703,74.9408423862269 105.18933868408203,78.8455875093714 103.72148895263672,83.59458696075944 97.73722839355469,83.22521804159533 93.05146026611328,82.32820546839412 88.36566925048828,81.48393583903544 80.34904479980469,81.06178572324097 78.03437805175781,81.95882889867244 73.80024719238281,80.58688501304641 70.97749328613281,81.06178572324097 66.7998046875,81.06178572324097 62.50920867919922,79.74261538368773 60.19454574584961,80.16475784892464 58.78316879272461,79.32048821956596 55.96041488647461,78.42346799580719 52.17790985107422,79.32048821956596 46.58885192871094,79.32048821956596 43.766090393066406,74.9408423862269 45.17747116088867,68.7671561053703 44.274192810058594,67.0258356500226 38.4028434753418,65.17900635531714 35.5800895690918,62.857257224023215 35.5800895690918,58.89975385592106 37.44310760498047,54.46736890401826 35.5800895690918,52.72605609922812 36.483367919921875,46.60512041277161 34.168704986572266,38.690109851288526 38.4028434753418,32.1470355248739 45.91138458251953,39.165010561483086 49.63742446899414,38.26798651244553 49.63742446899414,40.431399704405976 54.323204040527344,41.32844287983744 54.831298828125,42.172708683917335 " id="polyline132" stroke-miterlimit="10"/>
      <polyline stroke="black" stroke-width="1.28222" fill="none" points="231.874755859375,174.98656394850332 236.84280395507812,118.52617593309606 162.4348907470703,110.45287151034609 152.5552215576172,166.6494147470621 200.03402709960938,171.97885435023272 231.874755859375,174.98656394850332 " id="polyline136" stroke-miterlimit="10"/>
     </g>
    </g>
   </g>
  </g>
 </g>
</svg>